<mxfile host="65bd71144e">
    <diagram id="DSKujXKeD6uoOkMUbGKy" name="Page-1">
        <mxGraphModel dx="1296" dy="511" grid="1" gridSize="10" guides="1" tooltips="1" connect="1" arrows="1" fold="1" page="1" pageScale="1" pageWidth="827" pageHeight="1169" math="0" shadow="0">
            <root>
                <mxCell id="0"/>
                <mxCell id="1" parent="0"/>
                <mxCell id="2" value="" style="shape=image;verticalLabelPosition=bottom;labelBackgroundColor=default;verticalAlign=top;aspect=fixed;imageAspect=0;image=data:image/png,iVBORw0KGgoAAAANSUhEUgAAAggAAAHbCAYAAACuvmJ/AAAAAXNSR0IArs4c6QAAIABJREFUeF7snQeYU0XXx//J9t5gWXqv0jsIYgEpAiqCiAqCoNgRFFFRX7siWABBQFSayiciCFbAAoj0XpbeO9t7S/I9Z9aEZJNNnZu92T3zPDzvK9x7ZuY/k3t/98yZM5qs7BwDuLACrAArwAqwAqwAK2CmgIYBgecDK8AKsAKsACvACpRUgAGB5wQrwAqwAqwAK8AKWCnAgMCTghVgBVgBVoAVYAUYEHgOsAKsACvACrACrIBjBdiD4FgjvoIVYAVYAVaAFahwCjAgVLgh5w6zAqwAK8AKsAKOFWBAcKwRX8EKsAKsACvAClQ4BRgQKtyQc4dZAVaAFWAFWAHHCjAgONaIr2AFWAFWgBVgBSqcAgwIFW7IucOsACvACrACrIBjBRgQHGvEV7ACrAArwAqwAhVOAQaECjfk3GFWgBVgBVgBVsCxAgwIjjXiK1iBMlVAr9dDo9GIP+bFYPCNc9ZKtru0/pSpyFw5K8AKWCnAgMCTghVQsQL0Mj14YD+CgoLRqHFjU0uTk5KQkpICWDKD6nri5+ePGjVqIDAwULQtNzcX+/ftRaPGTRAdHa269nKDWAFW4LoCDAg8G1gBFStAPoL9+/YhLzcHbdq2Q0BAgGjtoYMHoNVqVdzy4qaRl6N6jZqIjIwU/01gs2/fPtzU4yYQPHBhBVgB9SrAgKDeseGWsQJCgXPnzuLSxYtodsMNCA+PEH+3a+cOhIaGql4hnU6HSpXjUaVKFdHWxMRDyMrMRIeOnVTfdm4gK1DRFWBAqOgzgPuvegVSU1PFMkOtWrVQOT4eSUlJSE1JMXkT1NwB8iDQMkndevVhMOixd89exMbFomnTZmpuNreNFWAFADAg8DRgBVSuQHZ2Nvbu2S2WFOhlS//r7+877nmChMLCQqGyn58fYuPi0LBhI5Wrzs1jBVgBBgSeA6yAyhXIycnBnt27fMJj4EhKgoWY2FgGBEdC8b+zAipQgAFBBYPATWAF7CnAgMDzgxVgBcpCAQaEslCd62QFXFCAAcEFsfhSVoAVkKYAA4I0KdkQK6CMAvYAgdb2KS7BWGgbZFltf3SmLbzEoMwcYausgBIKMCAooSrbZAUkKmAPEL777jscP37cVNvQoUNRv359ibU7Z4ogZfny5Th27Ji4ISgoCPfddx+qV69uYYABwTk9+SpWQA0KMCCoYRRstOFKVhqOpl5GbqAWhgB/1WfMkyGjLiMbiAiRYUq6DUNOPjShQdLsFh08C6RmOmWvoKAAZ06fFjsASpY///wT58+fN/31bbfdZvVSdqoSDy+iF/9ff/1lagt5Mnr27InKlStbAUJ4eDiqJCR4WCPf7qsKUOptAsiwsDDUrFkb1atXszm3fbV/5andDAgqGM3CoiKczUlFYnYStmVcwNak08gM851tbB5LqNMjb8N+6M5cQdjI2z02J9uA7nIq8lZtQdijfaWYzt94AJmzVgG660sDUgyzEVbABxWgLJvt27dHx06d0KZNW+EBM2be9MHulKsmMyCU8XDuvnIGsy/txDlNLjINhfCN43fkipa/6SCyZq9GcK+2qgME3dmrSH/rG/jFRyPqnZEed5zgIGveLzDkFXhsiw2wAuVNAcoOWqlSJQwfPgJD77sPwcHB5a2LPtUfBoQyGq6DqZfwzcW9+Kvwchm1QAXV6vXI+3sfsj77STQm5I6OqgIE3aUUZH60HEWnryCgUQ2PASF/w35kzfkZhsIiFYjPTWAF1K1AkyZN8Nhjj+PmW27xibTi6lbTvdYxILinm9t3Fel0mH/0X3xfcAY5hor9osjfnIismT+aXphqAgTd+WtIf30J9OnZYqw9BQThOZj7Mwz5xRkFubACrIBjBShjaOvWrfHprNmIjY11fANfIVUBBgSpcto3lpqXjVmnt+C3nLPQa1V+Tq+SuugNyPt7r8lzYKxKLYCgu5CMzE9WoOj0de+OJ4CQv3E/sub+4jYc0EOSdgmYb2dUcniUtk0BjEVFReKkRy6sgDMK1KlTBx98MBWt27Rx5nK+RpICDAiShHRkJrsoHxOPr8We3KQKsSPBnh75244g8+MfgCKdxWVqAATdhSSk/2+xyXNgbKC7gCACEmevtuqro/lC/x4SEoJbbrlF7EqgUxF37dqFPXv2OHOrKq+JiYlB3759QbsYaOvmP//8g9OnT6uyrdwo9SlAv4d5n89Hp058Eqi3RocBwQtKp+Xn4O2T6/Fv/hUv1KbiKgwG5P25R6zD2yplDQi0rJA5/UcLz4EngCCWFT7/BYZc1wMSIyIicNddd6FGjRoiopu8B3Sq44EDB/DHH3+YDj9S8WhbNK1mzZro168f4uPjxfY22rqZkpKCTZs2YefOneXGO+Ir4+Gr7aRjw6fPmIm2bdv6ahd8qt0MCAoPV5Feh9eOrMPf+ZcUrkn95gt2HkPGB98Betuu5bIEBApITH9lAfQZOTaFdNWDIDwHn64CzLIcujJC9DKltddGjRqB9o1ToVMdExMTsWrVKpw5c8YVc2V+7ejRo0FuYgIFY3+Sk5Nx+PBhfP3116JvXFgBZxQgT8Ivv/5WJvk+nGlfebqGAUHh0Vx9/gA+vLYTBZqKvd6at263CNKzV8oKEHTnriJzBnkOSvfwuAIIYrfCF7+Bkiu5Uygh0mOPPSb2g8fFxVmYOHr0KNasWYPt27e7Y7pM7omKisKoUaPQuHFjq2j0vXv34v/+7/9w4cKFMmkbV+qbCnTr1h2zZs8Wy3BclFOAAUE5bXExIxWDT/6oYA2+Ybpg9wlkvPutw8aWBSBQEqT0VxdAn2b/C9ZZQMj/5yAyp69w2Fd7F9De77FjxwpAoJereaE1+w0bNohlBl8pVatWxbBhw4Q3pOQD/eDBg1i5ciUIfLiwAq4o8P77UzDonntcuYWvdVEBBgQXBXP2cp1Bj3eO/S12LFTkkvfH7lJjDkrq4m1A0J25isxP7XsOjG10BhBEzAF5DrLzPBpyBgSP5OObK4gCFKez/IcVYumKizIKMCAooytSCnIweN93yKtAGZMtpDQYkL/zGDKnfOe0wt4EBBFz8MYS6JMznGqfXUCgvm4iz8FKp2w5usgICPXq1UN0dDR7EBwJxv9eYRUYPmIEXnnlVVNcS4UVQqGOMyAoJOxr+37FOn3F3bWQ98cekVLYlSA9bwFC0ZmryJqxEkVnrzo9+vYAQXgOvvwNhizPPAfGxtBxzY8++igaNmwo0s6aFzotcd26ddiyZYvTbS/rCwlyKAaB+kM7GMzLvn37RAyC+YFTZd1ert93FKhVqxZW/rhKbJ3lIl8BBgT5miI5NwsDjnyvgGUfMKk3IH/7EWROc73/3gAE8hxkvP0NdFfTXBLTJiAIz8Ehj2MObDWETkLs0KGDWLcnYKBCkf6HDh0Sa/a+9kIdPny4CFKknA7UH0qSRLsYjhw5wrsYXJqJfHFJBebMnYtbb72NhVFAAQYEBURdeW4/PkjeqYBl9ZsUeQ4+/9W9xEAKn8VQdOaKWAbQnbvmspC2AKHYc/A7DFm5LttzdIMxDwK9UOnriBIlZWRkgIL6yINAmQh9qVA+B0qSRPvYaQmF8iBQfyhZEuVB4KyKvjSa6mprmzZt8H/fLVNXo8pJaxgQJA8kbWacdmojVqSfkGxZ5eZ0euT/ewiZM9xfh1fSgyA8B+8uhe5yiltCWgACeQ5ot4IHfXWmERTx361bNyQkJIhEQvv37we55H21EBx07dpVJH6iTIq0VZMzKfrqaKqr3Zv+3YzKlSurq1HloDUMCJIHscigxzOHf8Ge/CTJltVtLnfNTuQsWOvRSYVKAYLwHHz8A+iMBXeLOSAo6Tmw1T46i4E8COXlK5vyPFB/uLACshSYO+9zkZaci1wFGBDk6okCvQ5D9v4frmlcT68ruSneMafTI2/99SObPalUCUAQnoMp34HOWPCkCEB4+yGveA48aSffywpURAVenjwZI0eOqohdV7TPDAiS5c3XF6HnjoXQBfpJtqxOc3lrdiJ74VoYCjxfE5cNCMJz8OFyECR4WggQgvt2QNYXv0rbreBpm/h+VoAVKFaA4IAggYtcBRgQ5OqJPF0Rbt2zCPArjjwvt6VIV3xk89xfpHVRJiAIz8EHy0AHMMkomrAgGLLdS50so362wQqwAqUrMHjIELzzzrucD0HyJGFAkCxoSm4W+leALY55a3chm2IOCgqlKSgLECjPQeYH37m8lVFaR9gQK8AKeFWBgXfeiQ8+mGraEuzVystxZQwIkgf3fFYq7j1ejs9f0OmQ9+fe4iRIkosMQKBdCplTv3cpCZLkbrA5VoAV8LICAwYMxNRp0xgQJOvOgCBZ0PIOCHS2Qjbt/ZcQc1BSek8BgTIj0lZGZ9MnSx56NscKsAJlpAADgjLCMyBI1rXcAgLtVqCDlygJkkLFE0AQnoNpy0GBiRWt0DZIOrCGkhFRvgQ6Ovns2bMoLJS3/GNPUzqSmk6epIROlPzo+PHjSEtzLVNlRRsz7q9cBRgQ5OpptMaAIFnX8goI+ZQhcf5vHuU5cCS1u4BAmRHT31zi8MhmR/X74r9TToHbb78dDRo0QExMjCnj4t69e8Wx0EoXgoJ7770XBAmhoaEiHXRKSgqWLVuGzMxMpatn+6yAUIABQZmJwIAgWddyBwjkOVi3S8CB0sUdQKDdCpkfLUfR6YrnOaDxIK/BwIEDxUFIsbGxYohSU1Nx9OhRLFy4ULywlSoajQbDhg0T3gP6Q/9NHgw6UCoxMRE//vij+G8urIDSCjAgKKMwA4JkXcsbIORTEqS5P8NQqHzmO1cBgbYwpr+2CPpM+WchSJ4Wiplr0aIFevXqhZYtW1ps8aJDnegFffjwYcXqJo/BmDFjxPIGeRCM5fLly+IQpm+//Ra5uRV3bBQTng1bKcCAoMykYECQrGu5AQS9HrSV0RueA+MQuAIIuovJyPzkBxSdqpieA6NmdNpjnz59BCAEBASIv6Y0xnSo09KlS0U8glIlMDAQjzzyCGrWrImqVauaqqH4B4pDIECgQ5m4sAJKK8CAoIzCDAiSdS0vgJC/cT8yZ60GdN5zETsLCJQ2Oe3VhTBUYM+BcdpGRUWJGAA60Im+5Mmlf+LECZw7d068oJV28Xfu3BldunQRddMhTBScSICwceNG7NixQ/Kvi82xArYVYEBQZmYwIEjW1ecBwWBA3u87kfWF8jEHJaV3BhB055PEKYpFpy5LHjnfNUdf8PSijo+PFwc6JSUlYdOmTYp6D4xqUdzBjTfeiCZNmohjnGlJgZY3Nm/e7LuCcst9TgEGBGWGjAFBsq6+Dgj5mw4hc/oKwEAHV3u3OAIECkhMm/wVew5sDAu9qOkPFYIEb5/8qNVeTy2utNfCu7OSa/MFBRgQlBklBgTJuvoyIOT9tqNMPAfGIbAHCLSVUXgOKuhuBcnTlM2xAuVKAQYEZYaTAUGyrr4KCAWbDyHjox8kq+GaudIAgZIgpb+yEPp05bbsudZSvpoVYAXUpAADgjKjwYAgWVdfBISy9hzY8yBQ+uSsmT+y50DyPGVzrEB5UoABQZnRZECQrKtPAYLegPzNh5D5yQrJKrhnrqQHgWIO0l9fDH0KZ+RzSlE/P2j8tdAEB0IbGyH+VxNcvPVRkaI3QJ+TD0N6NvRZuUChDoYiXZnEryjSPzbqMwowICgzVAwIknX1JUAQnoMvf1fNA90cEITnYPpKPpXR0fzUaOBfszICb2wG/7pV4ZcQI/7gv4BFR7dL+Xe9AYb8AjFW+kupyN91DIW7T8CQxzkQpOjLRhwqwIDgUCK3LmBAcEu20m/yCUDQ6yF2K8xYKbn3npkzAoLwHLz1NfTX0j0zWJ7v1mqgjYtE2P23IujGZt4FAid01adliyPBC/efYlBwQi++xDMFGBA806+0uxkQJOvqC4CQ9/sOZH21xqtJkJyRmQAh6JbWYpsl7VrgYlsBWjYIHXYLgm5qAW14iHpl0htQePQ8cr7+E4WHz6m3ndwyn1eAAUGZIWRAkKyrqgFBp0f+PweQ+ekqyb2WYy6ocxMRjKi7nCrHYDm0QssHEc/dA/86CT7TO4pLyFm4FrnrdgMUo8CFFZCsAAOCZEH/M8eAIFlXNQMCZUjMXrjGKwcvuSMrBdXxunXpygU0q4Xwx/rDr2rxqY2+VAwFRSDPVfaidb7UbG6rjyjAgKDMQDEgSNZVlYBARzZv2Ies2T9J7i2b85YCftXiEPnyMPhVifZWlYrUk7NsI3KWb1Td8pYinWWjXlOAAUEZqRkQJOuqRkDIW0Oeg7WgrzguvqeAJiQIUf97EP71r5+YaK8XdIhV0bmr0KdmQZ+Ro1iHNQF+8EuIhTYqDH41KztVD3mIMqevRMGOo05dzxexAs4owIDgjEquX8OA4Lpmdu9QFSAU6ZC3fh+y5vwsuZdszmsK+GkR/nAfBN/e1m6Vhpx8EQhIMFiw67jXt65SbERw7/YI6tQE2kqRdndVEMCkvvgF9FfTvCYjV1S+FWBAUGZ8GRAk66omQMhbtwvZX61hz4HkMfamOb9a8Yh+cwQ0YcGlVqtPyULGtGUoOnER0Hv/kC1TwzQaAQchA7sgpE97uzLl/3MQmbNXieRKXFgBTxVgQPBUQdv3MyBI1lUVgKDTIe+vfciay54DycPrXXNaDSJfuBeB7RqWWm/hwTPImLoMhuw877bNQW0hd3RC6NCbQMsjtgq1N/21RZwIS1Wj5ruNYUBQZuwYECTrqgZAyPtzD7K/+I09B5LH1tvm/BvXEN4DmB2lbN4GXVI60id9oWicgdt91moQOrg7QofcVKqJvDW7kPX5L25XwTeyAkYFGBCUmQsMCJJ1LVNAoN0Kf+xG1ue/Su4VmysLBcIe6oWQ/p1K/wJ/fbG6D7Hy0yJy0lAEtqlvuw95BUh9ahaf0lkWk6uc1cmAoMyAMiBI1rUsASHvr73I/vxXGAp5t4LkYfW6OcoJIXYuNKhms+78LYeR+fEPgF7v9ba5UqF/7SqIohiKUNtLDbSjgZJ3cWEFPFGAAcET9Uq/lwFBsq5lAgjkOVi3G1nz2XMgeTjLzJw2OhzRHz4KbWSozTakT14g0hiXVihvgn+dKjAYAN3ZK9BdTJG2s4ECJgMaVoMmMhQUIFl0/GKpCa40gf4if0PADbVtNjX3l20ikJYLK+CJAgwInqjHgKCMejaslgUg5G/Yh8zPfuY0tl4bZeUrovwCMTMet7ldUHchCanj55b6wg/q2gxhY/pC+9/OB0NuPrK++h356/d73HBNUIB44fs3rC6OlqY0yoV7TiBj2vJSvRmh995UaixCwY5jYgcGdOr2hHgsHBtQVAEGBGXkZQ+CZF29Cgh6PfLW7kLW/N8k94LNlbUCQR2bIGLiYJvNyPt7L7Jmrbb5b/51E4pd+sGBFv+uT89G2sTPRfIkt4ufHyKevRt0ZkbJkrt6C7IXrwNs7LIMaFpLtMlWKTp2Aelvfs0ptt0eFL6RFGBAUGYeMCBI1tWbgGA6eIm/viSPYtmbC+nZBmFj77DZkJzvNyLn/9bb/Lfg3u0QProvoLH+ZzoHgV7k7ha/+GhET3sUmhBL+CB75KVIeWImDFnW2y39qsYVe0NslKJTl5H++mJQoicurIC7CjAguKuc/fsYECTr6hVA0BuQt3Ynew4kj52azFGiobDRfWwDwncbkLNsg81/C+nXAWGjetu+b+n64nMQ3Cx0SFT0B2OsvBMCEGhHwhMzoc/MtbKurRyF2NlP2waEM1dFPgRDjrryOLgpEd9WRgowICgjPAOCZF29AQj5mxOLI9gpAo1LuVQg6MYbhDvfVsn9bYfIc2GrBLSqh6gXhwL+fhb/bNDpkfb8POjOJ7mvV4AfYj4ca/M0ycIDp5H+xhLbbWpUHVHvjLINCCcuivsMuQXut4vvrPAKMCAoMwUYECTrqiggGIBcOjK3lJeD5K6wuTJUwL9eVURPGW2zBbpz15A6Ya7Nf9ME+CN02M3iXATaQSBKkQ45q7cg55u/PO4RtSti3F2gXRLGQimeM6Z9D31Shk371JbwMba9IYV7TyJjyne8NdfjkanYBhgQlBl/BgTJuioGCAYD8rcdQea07yW3mM2pUQFtbARiPh4LTajtMxhSnvgU+mulH3bk36gGQu/pBkN+AXJXbRFbEWUVTXgIQu7sioC6VUCpnmmroiG/0LZ5rRaRzw9GYIdGNv89/99DyPxkBXvDZA1OBbXDgKDMwDMgSNZVKUCw51aW3AU2pwIFKLFQ1OvDQbsSbJXiXQN/qP7FqqXAxrceAgGPrULeMJrbXFgBTxRgQPBEvdLvZUCQrKt0QNAbkL81EZkf/SC5pWxO1QpoNYh4ciCCbmphs5l0VHLa/xaV6tZXRd80GoQ9cCtC7uxiuzkGIPWZWdBdTlVFc7kRvqsAA4IyY8eAIFlX2YCQ+9t2ZH+5RvVfipJlZHOAcMvTaY42i8EASjKU+ckP6jyUSwMEdWuO8McHQBNgGTBp7A/FH6S//Q2PNSvgsQIMCB5LaNMAA4JkXaUBgl6P/H8TkTl9heQWsjlfUUDj74foqY/Ar0alUptMh3Nlf/m7uiBBo4FfnSqIeuk+aGPCbfNNkQ4Zry1C4bELvjIc3E4VK8CAoMzgMCBI1lUWIIjdCpSjnpMgSR4h3zJHXoSI8YNAuxNsliIdCvacECd46lMyy75zGg2Cb2+L0Ht7lHqOBDWSghsz3ltaenBj2feEW+BDCjAgKDNYDAiSdfUYEOjgpU0HkTXzR8ktY3O+qIA4++D5wQhobfvIZGOfDFm5yFr8Bwp3Hwf9f0Ohznvd1WhEdkU6PyLsvh4IaNPAbt102mjG+9+hcN9J77WRayrXCjAgKDO8DAiSdfUUEPLW7EQWeQ6KvPiAl6wBm5OrgF/1OES9MQLaqDCHhvXX0kXQny45QwQwKpqhUKuFX2wEtJUioY2LFEshBDR2i94AkfL5560O+8IXsALOKsCA4KxSrl3HgOCaXg6vdhsQdDrkbTxQ6iE8DivmC8q1AgEt6yFywiDQUcu+XAq2JCLz01W8tODLg6jCtjMgKDMoDAiSdXUXEOhUxuyvfveua1hy39mcggpotQju0UKcz+DwK13BZrht2gDkbz+CrM9W2zzQyW27fCMrwKc5KjYHGBAkS+syIBTpkLdhP7I++0lyS9hceVQgsH0jhD/ar9TdAWrss4ECKTcfEoeL8amNahwh328TexCUGUMGBMm6ugoIeet2iTwHFLjFhRVwqIBGA/+alRE28nYENK8NaGyc6+zQiPcuICDI+uI3FGxO5DnuPdkrXE0MCMoMOQOCZF2dBgTyHKzfh6w5P0tuAZurCApoAgMQ3Lsdgm9uWZwnQatVVbf1GTko3H8a2QvXQp+qgu2XqlKHGyNbAQYE2YoW22NAkKyrs4CQ9+ceZJPLlT0HkkegYpnTRoTAv04CQgbdiIBmtcocFPRpWcj9ZTsKNh0UOyk4j0fFmo9l1VsGBGWUZ0CQrKtDQKA8B3/uQda8XyTXzOYqugKUTCmgdT34160KTXgwyMug8dMqtgxh0OvFdlxDbgF0Sekir4HuQnJFHwbufxkowICgjOgMCJJ1dQQI+X/vE3DAngPJwrM5VoAVqLAKMCAoM/QMCJJ1LRUQyHPwx26REpcLK8AKsAKsgDwFGBDkaWluiQFBsq6lAUL+xv3InP0TZ0iUrDebYwVYAVaAAUGZOcCAIFlXK0DQ60FJkGgPOBdWgBVgBVgB+QowIMjXlCwyIEjWtSQg5P97EJnTfwQooIsLK8AKsAKsgHQFGBCkSyoMMiBI1tUECHoDxMFLX7DnQLLEbI4VYAVYAQsFGBCUmRAMCJJ1NQJCwbbDyJj6vWTrbI4VYAVYAVagpAIMCMrMCQYEybqez0zBwFmvsedAsq5sjhVgBViB0hRgQFBmbjAgSNb1YvI13Ny5i2SrbI4VYAVYAVaAAcG7c4ABQbLeKSkp6Nypo2SrbI4VYAVYAVaAAcG7c4ABQbLeDAiSBVWJucDAQAQEBFi0xmAwIDc3F/S/Mou/vz+CgoKsTFJdegV2w4SFhVnVlZ+fj6Ii+SeMUr+of+ZFp9MhLy9PpoTCVmk65uTkSB8z6Y1ngy4pwEsMLsnl9MUMCE5L5dyFDAjO6eRrVw0ZMgS9evWyaHZycjJef/110MtUZmnTpg0ef/xxC5PZ2dmYNm0aLly4ILMqaDQazJ0718om/d3OnTul1kXGRo0ahS5dLJfgDh06hE8++UR6Xe3atcPYsWOt7E6aNAmpqanS62ODZacAA4Iy2jMgSNaVAUGyoCox98ADD6Bfv34WrUlKSsILL7wgHRDat2+P8ePHW9SVlZWFt99+G+fOnZOqCAHCkiVLrGxOnz4d27Ztk1oXGXvsscfQvXt3C7v79u3DlClTpNfVqVMnPP300wKCzAv9Hf1OuZQfBRgQlBlLBgTJujIgSBZUJeYYEOQMBAOCHB3ZiqUCDAjKzAgGBMm6MiBIFlQl5hgQ5AwEA4IcHdkKA4I35gADgmSVGRAkC6oScwwIcgaCAUGOjmyFAcEbc4ABQbLKDAiSBVWJuSeeeAK0pm1eMjIyRJAiBSvKLH369MGwYcMsTNKOAlqnP3r0qMyqkJCQYHP9f+XKlVixYoXUusjYa6+9hvr161vYTU9PxzPPPCO9LooZGTp0qJXdN998EydOnJBeHxssOwV4iUEZ7RkQJOvKgCBZUJWYmzx5MujFbV4IDMaMGQMKVpRZBg0aZBWkSDslxo0bh4MHD8qsSgDCsmXLrGzSLgZbwYueVj5z5ky0bt3awsylS5fEi1z2dlHaeWILPEaPHi0dtDzVhe/3TAEGBM/0K+1uBgTJujIgSBZUJeYYEOQMBAOCHB3ZiqUCDAjKzAgGBMm6MiBIFlQl5hgQ5AwEA4IcHdkKA4I35gADgmSVGRAkC6oScwwIcgaCAUGOjmyFAcHLbZNnAAAgAElEQVQbc4ABQbLKDAiSBVWJOQYEOQPBgCBHR7bCgOCNOcCAIFllBgTJgqrE3JNPPomePXtatIbGesKECaAofJmF6qH6zAudVfDqq6/i+PHjMqtCdHQ0vvrqKyub8+fPx88//yy1LjJGuxgolbR5OXv2rAjAlF0oqNRWqmUKXJSdkVJ229meawpwDIJrejl7NQOCs0o5eR0DgpNC+dhlnAdBzoBxHgQ5OrIV9iB4Yw4wIEhWmQFBsqAqMceAIGcgGBDk6MhWGBC8MQcYECSrzIAgWVCVmGNAkDMQDAhydCwTKxpAExoMjb9WavUGvQGGzFyPbPISg0fylXozA4JkXRkQJAuqEnMMCHIGggFBjo5lYUUTHIioV+6Hf+Ma8qov1CHry9+Rt26XRzYZEDySjwFBGfmsrTIgeEtp79YzePBg9OrVy6JSyqT4xhtvSD/umTINPv744xZ10XHPH330ES5cuCC143QU8pw5c6xsUibFXbs8e2jbaujIkSPRpUsXi3+i7JAzZsyQ2i8y1q5dOzzyyCNWxz1PmjQJaWlp0usr7walA4LegIxPVqBgSyJgMHgkHwOCR/IxICgjHwOCt3TlelgBVqBsFTACgl/NSsj5vw3Qp2ebGqQJCoA2IQbBvdpCGx7iuKF6PbLm/4a8tXIglAHBseTuXMFLDO6oZuce9iBIFpTNsQKsgCoUMAKCtlIk0l76EvrULKt2Bd/SCuFPDLDfXvIcfLwcBVsOS+sXA4I0KS0MMSBI1pUBQbKgbI4VYAVUoUBJQIABiHjmLmhjwkUMQe7P2wA/LeIWPA+61mbRG5A1/1dpngNjHQwIykwRBgTJujIgSBaUzbECrIAqFCgJCJrAAES9MxLaqDDozl5D6nNzBRjEfjkBmgB/6zYX6ZA5YyXyNydK7w8DgnRJhUEGBMm6MiBIFpTNsQKsgCoUKAkIhrwCBN3cCprgABQeOI2iE5cQ/lh/0DKDVTF6Dmi3gmfxiDa1YEBQZoowIEjWlQFBsqBsjhVgBVShgFUMQkYO/KvFAcGB0F9NE0GLIf06Imzk7YDmepMNBUXI+mw18v85qFg/GBCUkZYBQbKuDAiSBWVzrAAroAoFrJcY/BH19ihoo8OgT0pH+muLoEvORPT7D8O/bkJxmw0GZM37BXl/7gH0CrgO/lOGAUGZKcKAIFlXBgTJgrI5VoAVUIUC9mIQ6OVPOxuKTl5C5MTBCOzYBIb8QgEH+Rv2K95+BgRlJGZAkKwrA4JkQdkcK8AKqEIBqxiEQh3CH+oJTVQYCrYeQd5fe6Dx80PM7KdE4GKx52AvoNcr3n4GBGUkZkCQrCsDgmRBVWLOz88PWq1lDnqDwYCioiLpLaR6qD7zQnXpdDrQ/8ouAQEBViapLr0CD/ay1pE6SmOmhI6yx0Vt9kyAUDkK6a8sgC4l06KJ2rBgEX8Q2LERsj//DXnr93mtCwwIykjNgCBZVwYEyYKqxFzPnj3RqVMni9ZkZGSAUhIXFBRIbWXjxo1BqZ3NS25uLpYsWYKrV69KrYtSLb/88stWNn/44QckJsrfjjZw4EC0aNHCor6TJ0/i22+/ldovMta0aVMMGjTIyi6ldc7MtHy5Sa+8HBo0ZVKsXxVFxy4ABWZwrNEIT4J/jThkERz8vRfQKe85MMrMgKDMhGNAkKwrA4JkQVVijg9rkjMQfFiTHB3Lwoqjsxho22P2F78Xw4GXCwOCMoIzIEjWlQFBsqAqMceAIGcgGBDk6FgWVuwCAu1WmPMT8tbv96rngD0Iys4EBgTJ+jIgSBZUJeYYEOQMBAOCHB3LwkppgCA8B1/9XhyQWEaFPQjKCM+AIFlXBgTJgqrEHAOCnIFgQJCjY1lYsQkI5Dn47Cfk0VZGL8YclOw/A4IyM4IBQbKuDAiSBVWJuUceeQS9evWyaA2N9cSJE6UHvPXo0QNPPvmkRV0UpPjGG2+AAvpklvDwcHz55ZdWJj///HOsXbtWZlXC1gsvvID27dtb2KU+vfjii9LruvXWW0FAUrI8++yzuHjxovT6yrvBkoAgPAcL1iDvjz1l3nUGBGWGgAFBsq4MCJIFVYm5yZMno0+fPhatSU5OxpgxY5CUlCS1lRR5P378eAub+fn5GDduHA4elJuuNiEhAcuWLbNqP+3OoF0TssvMmTPRunVrC7OXLl3C0KFDpW89HDJkCJ555hmrLowePRpHjx6V3bVyb88CEITnYDXyNhwoU8+BUXQGBGWmHwOCZF0ZECQLqhJzDAhyBoIBQY6OZWHFtM2xTjyyF6xF3rrdZdEMm3UyICgzFAwIknVlQJAsqErMMSDIGQgGBDk6loUVAQiThyF37a7ig5cUSKTlbr8YENxVzv59DAiSdWVAkCyoSswxIMgZCAYEOTqWiRV/P/jXrYKiY+qL32BAUGZGMCBI1pUBQbKgKjHHgCBnIBgQ5OjIViwVYEBQZkYwIEjWVUlACAoKQkxMjM0zAXJycpCenu5Rb8h+XFycTRt5eXlIS0tTJD+/R4320s1PP/00brrpJovaSI9JkyaBxlxm6du3Lx5++GELk5TOmXYxyA6ui4+Px6xZs6ya/80332DFihUyuyVsvfnmmyIFsnmh9NEld23IqLh///546KGHrEzRTopTp07JqMLnbISGhiIqKgqUYrtkofTTnqagpmdIdHS01VkiVBftxElNTVVEMwYERWQFA4JkXZUCBAKD77//3uYPm7pAh898/PHH+Omnn9zqET0wpk6dirZt29q8nw7umTdvHr777ju37Pv6TZQHgV7c5oV2L9D2PIInmYW2AdJWPPOSlZWFd955B+fOnZNZlYDNRYsWWdmkL/2tW7dKrYuM0bbDbt26Wdg9cOAA3n//fel10dkZBHYlC+1skA110huvgEGCg9WrV9t9hhDArV+/3q3aIyMj8emnn6JGjRo276dn1LRp0/Drr7+6Zd/eTQwI0iUVBhkQJOuqFCD07t0br7zyit3WHj58GGPHjnXrK59eFH/99ZeVd8K8wmPHjll92UqWT7XmOFGSnKHhRElydHTHCm0lfeqpp+zeSgDxwQcfuGNeHMJFHynkRSitkAeBDuySXRgQZCtabI8BQbKuSgECfb06SiZDCWcooY87RxAbAcGeHLRf/b777pOsmG+YY0CQM04MCHJ0dMfKiBEjQDkg7JVffvkFU6ZMcce8yG9BHgJbx4cbDZIn7I477nDLvr2bGBCkS8qAoISkSgEC/ej8/f3tNplceJ64u0NCQuza1+l00o82VmIMlLDJgCBHVQYEOTq6Y4W+7OlDwF6hj4vCwkJ3zIu4g8DAQMXsMyC4NSwe3cQeBI/ks76ZXGidOnaQZrVu3bp48cWXUK9e3VLXDqVV5oQhApD58+djzZo1oMDIilKGDRtmM5PiSy+9BMpyKLO0a9fOKgMgfXm99957OH/+vMyqxJxasGCBlU1aS96+fbvUusgYebhsxSBQ/Ivs0qFDB5sudYrvUCpYTnYfPLVHQFCvXj2R4pr+Vw0lOzsbFOOyadMmEbgoowwYOBBTp05zCEAy6qpINhgQJI+2TA9Cv379MGHCBLtrepKb77S5xMREEcFfUR60FO0fGxtroQ99aVE0PAVwyix0PkLJQC/y3pw9e1Y6jFC7mzRpYtV8OqsgIyNDZreErapVq4ooevNCLwzZwZdkPyIiAtWrV7fqw4kTJ9z+SpYuiMIGKd00eW0cfdkr3Ayb5glAn3vuOSkptnmJQZkRZECQrKssQAgLC8Py5ctB/0uFvtyvXLmCzOxsxERFo0qVeIdLDjK6lpWVjUuXL4sXU0JCFfGS1P63RYq+SjZv3iyjGrbBCrACkhWgJcm1a9fB399PWKav9cuXryA7JxuV4uJQuXJlm9sRJTcD6ekZuHL1CghyE6pUEYBoXOogQNi2bZvHVTIgeCyhTQMMCJJ1lQUIderWxfzPPxfeA3Llz5g1G4mHj4jWklv4xi5dMHrUQ4q61Pbu3YfF3y7FtWvXRL1hoaHo17cP+va+XTxY6DAfOtSHCyvACqhPgZo1a4LyWVC5fOUK5n4+HydPnRb/TR6Fbl274MH7hykKCdt27MDS75YhObk4V0hoSAjuGzoEPbp3F//92WefmdroiYIMCJ6oV/q9DAiSdZUFCHXr1cPn8+YJQJg9Zy62bt9h1dJHRz+MG7t2kdyDYnOUmGfKhx/h+PETFvbDw8Lw4gvPo2aNGvh26VLMtpFkR5EGsVFWgBVwSYE6depg8eLF4p55X3yJTf9ae/vGPjIaXTt3dsmusxfT8uOrr7+JzKwsi1uio6Pw0QdTBJjMmTMHX3/9tbMmS72OAcFjCW0aYECQrKtsQCBX3FPjxiPPRiBcqxYtMOFZ6+NsZXSJguJenPyq1Y+bvBfPPv0UWrdqyYAgQ2i2wQoopIA5IIyb8DzSbGRa7XnbrRh+/zBFWnD4yFF8+Ml0mzufXn/1FdStU5sBQRHl5RllQJCnpbAkGxBoe+O45ybaDBjr0rkTHntkjOQeFJvLzsnB5NdetwpC9PPT4vnxz6JZ06YMCIooz0ZZATkKmAMCwT7FEpUs/fv1xZB7BsmpsISVkydP4f1pH1oF1tJHz5R33gIF/rIHQRHppRllQJAmZbEh2YBASwxbtm7D3PlfWETLh4aG4OUXXkDNmrbTmhq7RUsFOTm5SElNha6oCGHh4YiOikRwcLDd+AUKKPpywSL88++/FgpVq1oVL058HlFRkQwIkucOm2MFZCpgDghr1v2Bb//vO4tnCAUx/u+Vl1GrZk271VKAMn0wpKamQafXISI8QjxDgugZYuNMB6Mx2uXz4SczkHj4sIX9Zk2bYNLzz4m/Y0CQOeLybTEgSNZUCUCgJq7+6Wds+GcTcnJzQWt4d/bvj44d2ttsPUUrX7x0Gdt37MCx4yeEi4+24lEiJaJ3WvuLjIxApw7t0ahhI8TFxdoMVKLtZwsWLxFxCJRAhSKQhz94v+mBwjEIkicPm2MFJCpgDgj0DFi+YiV27tqN3Lw88Zu/f+i9aNK4sc0a6bd/4dIlbNu2HcdPnBQ7EMQzBBBQQM8Q+kjofmNX1K1TF7Gx1ofIkWH6OPniqwU4fuKEuLdqQhUMf+AB1KhejQFB4lgrZYoBQbKySgECvdxpuxDtaIiMigQFC5YsdA3R+sZN/+Lc+Qugw4Toh00vd+NefYohIEigpQvKnFitWjU0atAAd/TtbTNFKt1HEchFuiLExcYhMDDAVC0DguTJw+ZYAYkKmAOC0SwFDtJHRkx0NOjwJlvPkP0HDuLfLVtw5uw5cYIreQLoGULPFyrmzxDa2US5Jpo2boRePW+z+Qyhe4t3MRhQqVIli48R9iBIHHAFTDEgSBZVKUBw1Mz8ggJs3bodf61fj2tJSU4f20o/9vjKlVG1agIGD7pb7E5wtjAgOKsUX8cKeF8BW4BgrxXkZfhr/Qax2yE5JQUUqOxMoY8NevE3qFcPAwfcIZ4nzhYGBGeVKpvrGBAk614WgECE/vuatWIr5MVLl1zOEkeQQDEJTRo3wr2D7wHFGThTKhIgdO7cGS1btrSQJTMzUxzB7W7u+tI0pvTavXr1svhnWgemk/ZkH1NMY0/pj0uWdevWgQ7/kl1uueUWNGzY0MIspY+mQ4JkF0ot3LNnTyuztK2OXOjlvbgCCDS/VqxchX0HDoicCeR5dKXQPKLjnuvVrYP7hgwRSdWcKQwIzqhUdtcwIEjW3tuAQG4/CmL8be1anD17zqO0v/QDr1O7Nh4a/oDItOaoVCRA4MOaHM0G5/6dD2tyTicZV7kCCH/9vR5//PU3Lly86NEzJCYmBjc0bYr777vXlAXWXl8YEGSMtHI2GBAka+ttQCAoWPT1Nzhz9qyUkxYplfLNN3XHnQP6O1SGASFJHIIj+7Cm9u3bY/z48Rb6k7v37bffln5mAX35UUbMkmX69OlSUuCWtMuA4PBnJe0CZwHh9NmzWLT4a5w+c8Zlz4GtxlauVAk333QT+t/R12FfGBAcSlSmFzAgSJbfm4BAbsAfVv6If7dsleZ6phdGnTq1MWbkSNSoYX3QjblcDAgMCK7+fBgQXFXM/eudAQSC268WLhbBzbYSKblTO8Uk1KheHaNGDEft2rXsmmBAcEdh793DgCBZa28CAq2Bz5w9B0ePHZNyIppRCjpMpX3bthj+wDC7R0wzIDAguPrzYUBwVTH3r3cGEE6cPIWvv12Kk6dOSX2GxMXGokeP7hjQr5/dfCsMCO6PrzfuZECQrLIjQKAvdEpQYr5tyFYTzM9iKK2JmzZvwYofV5kOU5LVFfoCaNSwIR4eOcJuLEJFAoQRI0agR48eFhLTlrHXX3/d6WhvZ8ena9euGD16tMXllNti6tSpOHPmjLNmnLqOTgudMWOG1bULFy7Ehg0bnLLhykVPPfUU2rRpY3HL6dOn8dZbb7lixqlru3XrhlGjRlldO3nyZFy2kVXQKaM+dJEzgPDHn3/hp19/k+aBNMpDz7j27drh4YeG2z2u3hlAIFsUa2UvcJLPYlBmYjIgSNbVHiBQ3oHP53+Bxo0bg86kf/yxx5CaWnzKWcniDCDM/3IBdu3Zo0hEdu1atYQHoWGDBqUqVJEA4aWXXkLv3r0ttEhOTsbYsWNFvgmZ5e6778a4ceMsTNJx3xMmTMChQ4dkVoWEhAQsXbrUyua8efOknLJX0jDFNrRq1criry9duoT7779f6hcsVTB48GAQkJQsjz76KI4ePSpVRzUacwYQaHmBsqXSB4vsUq9OHUx4dhwiIsJLNe0IEO686y68/PJksVNowvhnS42LYUCQPXrF9hgQJOtaGiDQl9rcefPQsWMnU4379u3DiOEPiuRHrgIC0fT7Uz8UQWuUGU12qRIfj/vuHYK2bVozIACgr84+ffpYAcKYMWOkA8KgQYOsghRprZig4eDBg1KHmgBh2bJlVjbpGG9bwYueVj5z5ky0bm05pwgQhg4dKh0QhgwZgmeesT7MjLwzDAjFI/nBhx/j8OEjIoWy7FKlSjzGjh6N+vXruQwI5Gl96KGReHnyZNO95EUY++ij+Pvvv6zsMSDIHj0GBEUULQ0QiOZXrf5J5BswL2PGjMaG9etdBgSCimkfT8e58+el7F4o2YDo6GjcO3gQbuxS+nHSFcmDwIAg5+fCgCBHR2esOONBeP2td8QOKGOmVWfsOntNXFycOCmyTWtLj5H5/aV5ECjL44KFi6xg8o8//sATjz9mBZMMCM6OimvXsQfBNb0cXl0aINSqVQs/rlpttTeYPAhbtmxxGRAoQPHjGZ8qBgi0n3nQnQNxU/du7EFgD4LDee/sBQwIzirl+XXOAML/3nwbZ895lj+ltJYSINw35B507NDBZQ8CfUh9+dUC0JZf80IJtWipoSTQMCB4Pl9sWWBAkKxraYBApzLOmTMXN3a7/sLdsWM77h9m+yx2RzEIlBaVlhgocyIFsMkulC6VUi936lj6j5s9CMngJQbXZh4Dgmt6eXK1M4Dw9ntTRMZMnV7vSVU276XD3R68/z60aN7cZUCgG+4ZPBjvvvueaScVQcED99+PnTt3WNljQJA+fMIgA4JkXe0FKVaOj8fAAQNQp25dHDt2HL/8/FOp69eOAIGCimZ8OhsnTp5ElgJpY+vWro277hyA1iUCyszlqkiAQEGKt99+u8VsoSBF2rYnO0jxrrvusgpSpBgEpYIUv/32W6tfweeff65IkOInn3xSapCi5J+iCFJ88sknrcxSkOKxY8dkV6c6e84AwvSZs3Dg0CFFlikpKyvthKKA59KKvSBFikO4vXdvdOjQQcRp/fPPP9i2datNUwwIykw/BgTJujra5uhsdY4AgQJ2lnz9DfbuPyAOZ5JZaJtj/Xr1MOSeu9Ggfv1STVckQOBUy3JmGOdBkKOjM1acAYTFS77Gnn37kZSc7IxJp6+h46CbN2smPAjx8fFuAYLTlQFgQHBFLeevZUBwXiunrvQWIFBjNmzYiA2b/hVbJvX/HcXqVCMdXETxBw3q1RUHN9n7cTMgcKIkV+cbA4Krirl/vTOA8Meff2LTlm2gXBSuHtBkr2X03GjSsAHuH3afOFbeHQ+CKz1nQHBFLeevZUBwXiunrvQmIBw/fhy/r/0DJ0+fQlKSnC8ArVaLWjVron3b1rjl5psRHl76HmYGBAYEp34UZhcxILiqmPvXOwMIlGL5l19/F8HOqWlp7ldmdmdgYKA4Nr5Lpw7iGUKJjhgQpEjrdSMMCJIl9yYg0JG19AWw/+AhnDl7TsqhQRRYVL9eXbRu2UJEEBMwlFYYEBgQXP35MCC4qpj71zsDCNeuXcPmzZux98AhcViTjIRJlEOlcaOG6NShPW644Qa76dodJUpytvfsQXBWKdeuY0BwTS+HV3sTECiql5ItHTyUiGMnTortSp64CaOjolC9ejU0b9YUXTp3Bi012CsVDRD69rU8nY6CEydNmiQFzMx1JjB79tlnLaSn0xzfeecdRU5zXLx4sdUwU/rlbdu2OZzvrl5AmSe7d+9ucdv+/fsxZcoUV005vL5jx442EyU9/fTToDTZ5b04AwgEBDTOR44dw+mz58X8cvcZQkGFsTExqFmzBpo1biQ+MGiro73CgKDuWciAIHl8vAkI1PS0tDTs2LFDeBBOnz2Hy1euuBWRTIerUOazpo0aicxnRP6OSkUChJo1a6JKlSoWktBW0wMHDkhPMkNgVr9EcCg9yI8cOaLIltaSe82pkxTXosRLtG7dulYvjYyMDEUyG9LR5fXqWWfx27t3r0jdW96LM4BgfIZs27Ydp86cwbnzF3Dh4kWX57QGQKVKlRAfX1nAQYMGDdCkSROHEjMgOJSoTC9gQJAsv7cBgZpP+5gpyOj0mbO4fPUaLly4gJzcXIc/cvpR+wcECOont2D9+nURGx2Ntm3b2o09MEpWkQBB8jRhc6yA4go4CwjUENr2efbsWZw6cxZXrlzFxcuXxRkvtFvKUaEcL5Xi4gQcNG5QX3ge27VrB9oN5agwIDhSqGz/nQFBsv5KAgLthacvSQoCMv/x0VIDfclevXoV2Tk5oCNcU9LSQQf80FdgyXVFcgWGBAeLHzJFGNesUQ0J8fEiDTSdtEfHPRsLPSDIDtURHBICP7OYBAYEyZOHzbECEhWwBQh5/z1DgoOCLIIHyaNCnhUKVCQwOHHqNFJS05CbkyP+jp4D5rBAsUl0vkxERAQiwsPFM6RyXCUEBgaIDwxK1W4s9OygZwgVesaYxzUxIEgccAVMMSBIFlUJQNDp9Pjp55/xw4+rRGuJ2EeOeBBdO3e2eJHTQT4UdERriClpabh2LUkc5FRQUAhdUZF4yZPHgKKKg4MCQfnOa9esAdqzTDbJJUhuQmNJSU3Ft0u/w/adO8XDgSKTxzw8CrVr1RSBRwwIkicPm2MFJCpgDgiUbZWOhv997TpRA73AR48aiRY3NLMIIqSYJoqtod/71aQkJCWnID8vHwWFhaYj6un5YXyGREVGompCFfHf9LHRvHlzREZGmnqRnJKChYuXYN/+A6ZnyNhHRotnCRUGBIkDroApBgTJoioBCL/8tgbf//CDRfAQvdBfeH4CGpitsRIAUP3kTTAGGtGXAQGC3kCpVGlRwSB+zEGBgSaSp7V1WvM2369MXoe587/Atu2WaU1pl8MLz40X68gMCJInD5tjBSQqYA4IP/3yC5av+NFi2ZGeIc9PeBaNzI50Fx8XKSlITEw0xWnQ86OwsADXVxvoGRKAoKBAARf0h2J06I/5YXQEJe9PnSaWPs1Lvbp18b9XXmZAkDjWSpliQJCsrGxAoKWE8c+/gLT0dKuWdmzfHk8+Ptbq7+nlTkFm6enpIkUpgYO5e5B+0GSX3IP0o7YVaUxuxpdf+x/S0izrJW/D8+PHoVnTpgwIkucOm2MFZCpgDggTX5osliBLljv69hEJ0UoWCsCloFh6ftCfkksM9AyhpU7jM4QCQkuWYydOYOqHH9vc5fP+O2+hakICexBkDrgCthgQJIsqGxDohfzYk0+jsKjIqqWtWrbAhHHW590bLyRQoLgFAgT6MqD/JTCgHzfZJdqn/2+r0La6Fye/isysLKt/Hj/uabRu2ZIBQfLcYXOsgEwFzAFh3HPPW8E+1dXztlvFkcylFfJA0jOEAIGeJ/QMITBw5hly5OhRcSQ9wUbJ8sZrr6JO7VoMCDIHXAFbDAiSRZUNCOQGXPz1t1j3558WLaUX/OhRD+HGLl0k96DYHP2oP/xkOg4fOWphn3IlvPTC80hISGBAUER5NsoKyFHAHBC+XLhIpGY335NAL/mnHn8M7du1lVNhCSu0fZVOi7xSwnNBO6amvPu2gAyOQVBEemlGGRCkSVlsSBYg1K5dG/Pnzxdf+fSynvHpLJExkQr9sHr36omhQwbbzXToadco8dKUaR8iKytbmCIoGTViOG7s2kXUSwl25s2b52k1fD8rwAoooECNGjVgPKmTAo4/mj4D586dFzXR7/fuOweClhjod61UoeyMH34yAwQLxc8QLR5/9FF0aN9O/Pfs2bNNbfSkDZxJ0RP1Sr+XAUGyrrIAgcBgwYIFqF69umghufd279kjEpnc0LQpGjduJLnlts0RnGzctElAQtfOnVC5cmVTe1544QVs377dK+3gSlgBVsA1BehDYunSpahWrZq4kZYHtm7fjosXL6FN61aoW6eO3TTIrtVW+tUEB5s2bxHLFN1v7CriFqjQsueYMWNAZ8p4WhgQPFXQ9v0MCJJ1lQUI9GOibIZE2EoSvrvdp50S48ePN+1vdteOr9xXMveE8YFL+7udSSbjSj/FLpOgIItbzPNRuGLLmWtpP3vJYsy54cz9rlxD/Sp5eA+9KIz75F2x5ehaWzrSPcagO0f3+/q/05zp0KEDpk2bpspnyLp16/Daa69JaRsDgjKzlQFBsq4yAYEe0i1atIWSMFEAACAASURBVEDPnj2l/IhkdZX2SS9ZssQUqCTLrprtPPDAA+jXr59FE0kH8qLQOMkslPqY4Mu8UNDo22+/rchZDDSWJcv06dMVOYuBD2uSOVMc2yLw6tq1Kzp16qSqZ0hycjK++eYb4dWQ8QHEgOB4LrhzBQOCO6rZuUcWIFAVxuhh+v/kLrR3siJdQ18M9INztzj6oZbcLklf1Y7a5G5b1HYfA4KcEWFAkKOjs1a8+Qxx5hlV8hlCHqXSdlI520e6jgHBFbWcv5YBwXmtnLpSJiDQj8m4Reiuu+7C5MmT7baB8qk/+OCDbkECxTqsXLnSrn2KN3jiiSfENQQGBAgVpTAgyBlpBgQ5OjprxfwZMnr0aJD+9sqqVavw1ltvOWve4jryVJDnyV6hZ9T9998vLqEPEmfOa3CmMQwIzqjk+jUMCK5rZvcOmYBgrIj2Ivfv3x+vvPKK3bqPHj2Khx56yC1AqFq1qkNAoGNhn3rqKdM+aMnSqdocA4Kc4WFAkKOjq1boGTJixAgT4Jd2PwECHSvuTunSpQs++eQTu7dS8iVqhzEfizv12LqHAUGWkpZ2GBAk66oEIFATKR3yc889h9atW9tsMa2H04+TXuLuFHLzEYB0797d5u10rPTMmTOxceNGd8z7/D0ECH369LHoB62jvvjii9ID7Ciw7JlnLBNgUWZLenCfO3dOqpbkCVq4cKGVzU8//RRbt26VWhcZI0C48cYbLezSGSLvv/++9Lpo3Z2AtmQZN26c2I5c0Up8fLyYr3Regq1C57hMnToVe/bscUsaysg6ceJEcVhTafbpGaXEzicGBLeGzOFNDAgOJXLtAqUAwbVW8NWyFaDlHVuAQNu0CM5klkGDBlkFKdJaMr3Y6GUqs1DCq2XLllmZnDt3rghElV0IMktC7qVLlzB06FDpu0GGDBliBVrUH3K1k7eNS/lRgAFBmbFkQJCsKwOCZEFVYo4BQc5AMCDI0ZGtWCrAgKDMjGBAkKyrWgFBGxkKv5qVUXjwjOQeVwxzDAhyxpkBQY6ObIUBwRtzgAFBsspqBAT/OlUQ+eJQZH31Owq2HpHc44phjgFBzjgzIMjRka0wIHhjDjAgSFZZbYCgjY1AzEdjoQkLRsa0ZQwIbo43A4KbwpW4jQFBjo5shQHBG3OAAUGyymoCBP+a8Yh8eSi0laJELxkQ3B9sBgT3tTO/kwFBjo5shQHBG3OAAUGyymoBBL/4aERPGQNNeLCphwwI7g/28OHDrbZv0SE0H330EdLT0903bOPOm266CXfffbfFv9A+djqX4/Tp01Lroq1ptvJr/Pzzz6Bc+bILbTusX7++hVn6zbibnMde+3r06AFKMFayfPjhhzh/vvhUQy7lQwEOUlRmHBkQJOuqBkDwq14JUZOHQVu52HNgLAwI7g82J0pyXzvzOzlRkhwd2YqlAgwIyswIBgTJupY1IPhVjUX0u6OgCQ+x6hkDgvuDzYDgvnYMCHK0YyulK8CAoMzsYECQrGtZAoJfQgyiXnvQynPAHgTPB5kBwXMNyQJ7EOToyFbYg+CNOcCAIFnlsgIE/xqVEPXWSIuYg5JdYw+C+4PNgOC+duxBkKMdW2EPgrfnAAOCZMXLAhD8KkUh6s0RpXoO2IPg+SDffvvt6Ny5s4UhCk787LPPTCduel5LsYUmTZrg3nvvtTCXk5ODRYsW4erVq7KqEXaMZ3CUPHL3+++/x6FDh6TWRcYoaLBly5YWdk+ePKlIWudmzZph8ODBVn2g8wAowJRL+VGAlxiUGUsGBMm6ehsQ/GvFI+qNEcJzoLucivTJX0EbH42oVx+AJjTIonfsQZA82GyOFWAFVKEAA4Iyw8CAIFlXbwKCNiYc0e8+DG2lSNGL3NVbkL1oHTTBgYh6Yzj861VlQJA8vmyOFWAF1KcAA4IyY8KAIFlXbwECpU+O+t+Dpt0KhsIipD07B9q4SOguJiPo5lYIe/BWBgTJ48vmWAFWQH0KMCAoMyYMCJJ19QYg0BbGmGmPCBgwloK9J5Hx9jfizIXCA2eQt34f4r4YT4vMpmt4iUHyYLM5VoAVUIUCDAjKDAMDgmRdlQYE/7oJiHrtAcs8B3oDMj/7CYW7j4tgRf3VNKS/txQRE+5BUKcmDAiSx5jNsQKsgLoUYEBQZjwYECTrqiggBAYg9tMnQbEH5sWQlYu01xYBBgOi3x8NfXIG0l9bhIAbaiNi/CAGBMljzOZYAVZAXQowICgzHgwIknVVChAo4FB4DsKun61gbHph4jmkv7kEQR0bI2Lc3dBn5iD9f4tgKNAh+q0RpqUIXmKQPNhsjhVgBVShAAOCMsPAgCBZV0UAwU+L2LnjoI0Ks9najA+/R8GWw4CfFprAAOFJMOQXAjAg8oV7Edi+kbiPAUHyYLM5VoAVUIUCDAjKDAMDgmRdZQOCf70ERL3yADQR1mcrUNP1qVlIeeJTaAL9EdK3vSkokXIi5P9zAIHtGyJy0lAGBMnjzOZYAVZAPQowICgzFgwIknWVCgh+WrETQRNmGw6o6Xm/bkfWV2uKQeCF69n3DHkFSH5omvAmxM0fD01kKHsQJI81m2MFWAF1KMCAoMw4MCBI1lUWIJDnIPLlYaUuK7jTbF5icEe14nvuvPNO9OjRw8JAamoqpkyZIj3VcosWLTBq1CiLuijV8qxZs3Dp0iX3O2HjTkqx/OGHH1r9y8KFC7F3716pdZGxYcOGoUOHDhZ2jxw5grlz50qvq1WrVnjooYes7L7xxhugNNlcyo8CDAjKjCUDgmRdpQCCvx9i5zwDrY2ARE+am/HRchRsP+qJiQp7Lx/WJGfo+TRHOTqyFUsFGBCUmREMCJJ1lQEI2kpR0AT5S24ZoE/JhCG3QLrdimCQAUHOKDMgyNGRrTAgeGMOMCBIVlkGIEhuEpuToAADggQRATAgyNGRrTAgeGMOMCBIVpkBQbKgKjHHgCBnIBgQ5OjIVhgQvDEHGBAkq8yAIFlQlZgbOXIk2rZta9GajIwMEeBHwYoyyy233IL+/ftbmCwqKsKcOXNw6tQpmVUhISEBL7/8spXNX3/9FfRHdnn22WdRs2ZNC7OZmZl4/fXXZVeFXr16YcCAAVZ2aczOnDkjvT42WHYKcAyCMtozIEjWlQFBsqAqMTd58mT06dPHojXJyckYM2YMkpKSpLZy0KBBGD9+vIXN/Px8jBs3DgcPHpRaFwHCsmXLrGzSroIlS5ZIrYuMzZw5E61bt7awSzszhg4dCoPBILW+IUOG4JlnnrGyOXr0aBw9ysG6UsUuY2MMCMoMAAOCZF0ZECQLqhJzDAhyBoIBQY6ObMVSAQYEZWYEA4JkXRkQJAuqEnMMCHIGggFBjo5shQHBG3OAAUGyygwIkgVViTkGBDkDwYAgR0e2woDgjTnAgCBZZQYEyYKqxBwDgpyBYECQoyNbYUDwxhxgQJCsMgOCZEFVYu65555D7969LVpDQYpPPPGE9F0M/fr1A0X7m5e8vDxMnDgRlJZYZomNjcXSpUutTH722WdYsWKFzKqErffeew/t2rWzsHv27FkR7Cm70A6Gp59+2srs2LFjpe8Gkd12tueaAhyD4Jpezl7NgOCsUk5ex4DgpFA+dhnnQZAzYJwHQY6ObIU9CN6YAwwIklVmQJAsqErMMSDIGQgGBDk6shUGBG/MAQYEySozIEgWVCXmGBDkDAQDghwd2QoDgjfmAAOCZJUZECQLqhJzDAhyBoIBQY6ObIUBwRtzgAFBssoMCJIFVYk5AoS+fftatIYyKE6aNAmU5VBmad++vVWQYlZWFt555x2cO3dOZlXQaDRYvHixlc0ZM2Zg27ZtUusiYxQg2L17dwu7+/fvx5QpU6TX1alTJ5tBihS4KDs9tvTGs0GXFOAgRZfkcvpiBgSnpXLuQgYE53Tiq1gBVoAVkKUAA4IsJS3tuA0Iep0Ol69cRm5urvQc6sp01TtW09PTMey++7xTGdfCCrACrAArgJtvvhnPT5wIrVbLavynQEBAAKpUqYLg4BC3NXEZEAgIrly+jGvXrrpdaXm+kU6mo3VWLqwAK8AKsALeUaBr164iJwktmXGxVCA4OBgJVauicuV4l6VxCRDotLW9e3ajsLDQ5Yoqyg10BPDjjz9eUbrL/WQFWAFWoMwV6NKlC5588kkGBDsjUa16dVSvXsOlsXIaEOg8+sOJh8SSQkhICBo0aIC4uDiXKqsIF1+7ds3qONuK0G/uIyvACrACZaXAwIEDMWvWLF5iKDEA9DF/8uRJ0JHqtPzSuElThIeHOz1MTgMCRWyfOnkC/v7+6Natm9MVVLQLGRAq2ohzf1kBVqCsFWBAsD8C+/btAwXQ+/n5oW279k4Pl9OAcPr0KVy7ehU1atQQ3gMuthVgQOCZwQqwAqyAdxVgQLCvd0FBAbZs2QK9Xo/mzVsgJDTUqQFyGhCOHT2CtLQ0AQcECVwYEHgOsAKsACugBgUYEByPwtatW0WIQKPGTRAVFeX4BgBOA8LRI4dBW/gaNWqEatWqOWW8Il7EHoSKOOrcZ1aAFShLBRgQHKtPic9ycnLQsFEjREfHOL6BAcEpjVy6iAHBJbn4YlaAFWAFPFaAAcGxhAwIjjVS/AoGBMUl5gpYAVaAFbBQgAHB8YRgQHCskeJXMCAoLjFXwAqwAqwAA4KLc4ABwUXBlLicAUEJVdkmK8AKsAKlK8AeBMezgwHBsUaKX8GAoLjEXAErwAqwAuxBcHEOMCC4KJgSl3sDECjbeEREIPy0GmRkFUCnMyjRFZ+0GRMdhMJCPbKyOR24KwMYGOiHyPAA5OfrkMnauSIdgoP8EBLij7T0fBj4p2jSLjwsAAEBWvFbpN+kkoU9CI7VZUBwrJHiV8gGhJioQNRICEPnNpUw9v7G0Go1MD+PRDyPDEBung7LfjmNv7dcxvlL2UhKzVe8r2VZQUR4AOrUCEfXdvF48M66CA3xF9qYFzo7JC29UOiycfsVnL+cg7SMgrJstirqrlUtDPFxIbinby3c2rUqAvxpTllrd/JsFr76/jhOnMnEybOZKFD4Ia8Kcew0guZX/VoRoN/kMyObommDKGjo92h2D/0eDXoDdh5IwacLEwVsnTqXpfauedQ+P79iXej3OPrehmhQJ8JaFwNQUKgTc2nO10fEb/HcxWwUSfq4YUBwPIQMCI41UvwKWYAQFRmISWObo3G9SNStGWEBBfY6QV8wZy9mY+O2y/h00RHkF+gU77O3K5j8VEu0bBKDhnUindZFpzfgzPksbNubhE8XHUZ2TpG3m13m9cXQnHq8Bdq3jENcdJDT7aE5dPh4Bv7acgmLV5yEXl/xPpNv6lQFDwysh+aNowWMOlvSMwtw8Fga5n97DLsPpTh7m89c1++W6hjUpzaaNYhGSLCf0+0mXQ6fSMfUeQcFNHhaGBAcK8iA4Fgjxa/wFBDoR9aueRzoJZhQ2f1zvKmj9CN8/7MDWL/1svAw+HKh5ZSe3ari1adbISzU+Qe0rT6TFi9O2Ymte5LKJUCV7DPp9dgDjfHAnfWcBqrS5srexBS8PXMfjkt4qPvCfKSv4mcfboYenap41FxCqnUbL2LGgkTx9ezLhTwmdWqGY+wDjdG7u2dJ8+iD5offzghP1QUPdGFAcDyjGBAca6T4FZ4CwsevdkD3jlVEfEHJokMY0vQdoEMkDP85NjUwwB/piNAeQACSre/RG7Bx2xW89tEen11bpuWEd59vg85t4+HvZ61LIWKQrm8HHSi/OP07qUO6ZCBCuw8BSLXSpbBIjwNH0vD4K1vKNSS0aBKD155phQa1I2zMfQ3yDNWRYWgp1DLXLhCXEandCy2sl2QIPFf8fhbTv0pU/PdUlhXc3bsWnniwCSrFWntbDAhAlqERcg31aYXPpJ0WhQjVnEKo5gQ0sI6DuZKUi2nzDmLdpktl2TWP6h5wWw08O7oZYqNs6eKPbEND5AhdtCV0OYEwzVGbdZMu783ej/Vbr7jVNgYEx7IxIDjWSPEr3AWEyrHBmPl6RzSub5kju9AQiwJURpq+I/QIttt+DQoQpd2DIM15BJaABXLnTXp/p1h+8KVSo2ooXnmqFTq1rmTR7AJDZeQaaiHT0Pq/B1HpvdKgCFHa7QjWnEcA0iwu3HUwGa9M241LV3N9SRan2tq2eRzendgWVSqZzxuCgmrIEQ/xBibQLM1ggCYNkZpdCNJcgh8sv3yXrj6FKXMOONUWX7qI4Hxo/7p4ZlRTBAXSS6646BGIPEMNZBhaodBgOR+t+2dAoOYKojQ7Eay5LO42lrx8HabOPYAffj/rS7LA31+L+wfWFR4V85AVPQJQYEhAur49CuBYl2DNOURoDoo5pcF1zyYtZU18dye27LnmclAjA4LjqVRuACE1NVWcYU1BZvRH8LlGI86zrlWrFipVcjQJHYul1BXuAsK3M25C43pRFj+8NH0XQeN6OL9eTP3SIh/BmjOI06636CathT42eYvPRPjHRgdh1pud0KQENKXpOyPb0Fg8sF0pWuQhRHMaMdpN0Pz3wKbpdfp8Jh56fhMys8rPzoc2N8Ri1pudLdaFyUuQrL9NvOSKv+6cLQb4IRvR2i3i69hY6Le5ZuMlsVxTnsrIwQ1EEKL5S5AgPUXfA4UG53LYG/WgF6C/Jg2xmvUI1Fz38FHA59uf7sPqded8RrpRgxvg8eGNEeB/fe7kG6ohRd8NRYj8z1vgbHcIK1JRxW+1haeF4OmlKbvw91aCKueL2gGBTlM8ceIEsrOzTe8043stNjYWtWvXFkcxK1l8GhDy8/Nx/vx58ccIBfbEql69ujhVMiTEs3V62QPiKiDQ+vBHr3RAx1bXoacI4UjV34g8Qy2PmheouYo47V/C1W4sG7dfxeSpu1S/3EBfblNfbo/uHa6v/RYhAin6m5FvSPBIlyDNRcRqNsJfc12XTTuu4rl3dpSL5Yaq8SGY925XkPfFWEiza/o+INe4u4WgKlyzH5HaPaalBwIsWldf8P1xd82q6r4ubSuDlvmCAosf1gKNDI3E77F4Cca9QqAQp/0bwZrTJjil7X8T3t6O7fuslwbdq0WZuwiU+t1cA28918YMmjTIMjRBmr6Th3NKh1jtRoRqjl2fqwU6jHx+kwhidLaoERDoaGV6H5w6dQp5eXkOuxIWFoaGDRsiOjra4bXuXOCzgEAeg8TERBBlGUt8fDziqySYtl8RNCQlXcPlS9fX7gICAtC4cWNVeRRcBYT7+tfBxLHNTVv0CA6u6e74j8jdmQaW99BXcxXtjxYvwy+/OyYi+dW8Z3vyky0wuF8dU2fo6/eSbgh0CPdcFEB8vVT2+1V8GVOhXQ4ff3EIX688KcV+WRmhr7vln92MmtXCzOCgCq7p+3r0IDfvT4jmJCpp/yzeXwuAvvoefmETEo87/0AvK33s1UsevC+mdLUIgk03dECmnmI0XPG42K6FICFKsx0R2v2mCy5fy0XfkevUKIepTeGh/lgx71ZUijF6MjXCa0BePE+gyViBWALUbEOE9qCpzjMXsjD25c24kuT4xUo3qQ0QioqKcOjQIdC7zfjBSx+ztevUBb23iosBuTm5OHXqJHS64qUW8pKTR6F58+bS54TPAQIJd+XKFRw7dkwIFBoahpjYWFStWtVqX7ZRLQNRWdI1pCQnIzMzU7hl6tatK7wJaiiuAEL1KqFY+mkP0A+weLr4iwe5p1/IJXUgT0Jl7W9i6YEK5UgYMeEfXLqqzmhqihynBzUtMVCh2Iur+jtA8RgyC62BVtKuA0GUeNHRl8tz/+DIyeueBZn1ecPWoN61xA4YY04Ico1f0d0p5UFu3v5wzQFEa7eavoZpr/+oiZvEzhlfLBR38Nq4VhjYs+Z/zdcg03ADaJlPZiFIqKT9QywBGgvFctB2PzVuHyVdprzYDrfdWNXU3mLPQVfhXZFVSJdY7d8I1RQDut5gwOzFR/DF/133LNirS02AkJWVhSNHjpjeTzExsaheowYCA0tfEs3OzsLVK1eQkpIC8jzQMnqTJk3g7+/Zji1zzXwOEOhlSpRFoBAeEYFGjRo7vQ5DIp44fhxpaakCJsg1U62aZ1tuZEx2VwDho1fa45Yu1394SfpeyDVc/2qW0R6jjXDNQcRo/zWZXPPPRUx6T51rxy8/2QJDzLwHFHOQaWghUw6TrTDNMcRqN5iCyH5cew5vztiryoe1MwL8+PmtoERIxnJFfycKDPHO3OriNQahmzEqnX7Dr3+yF6t8aE3dvMOURXLd17eb1tdpOeuK7m6X43+cEVGLXMRrf0aApnh3TUp6PsZM+leVCZUoERnFARkLzaUr+gEi0kl2IVCv5rfUFJNAO416P7QWqWmOoVMtgFBYWIi9e/eCIIHeS81btERwsP3gcnMdk5OTcfJE8XJdeHg42rVrV+rHsqv6+xQg0JrM7t27QbEHRFgNGjZ0tb/ienLPJF27Jtw2rVu3Bq3jlGVxFhBKfiXnG+y7gcn1FBkZaaJQIkt6KBtdU6RjRkaG3fgN8iJQBDEVcg4PH78RB49aRvWXpXZUd42qYVj+WQ8EBhR/neQb4nFVT1/ApZeoqCgEBRV7G4yBPkZdaNmKdCGgtFXIqxLv97Npi2hKWj6GPbMBV5Odc22WtV7m9fe7tQbeea6N6a/SDe2QoW9bahNJK1rvNGpGvyHSzagVBVTRn9JKgCYFCdrlpn/edTAFo1/YpCZJnG7L1Jfaizwbxb8Nv/88edfhvaQheuhHRFACs+IslPR7JLey0Z2clpZmsWRa8v5iMP3b9Ndzvz2KOUuOON1eb1xIsQdvTmiD/rcWe2eLPZy9QYGJpRVyo9OLzRhUTrrQS5N0oXmVnp4u/rvU+zWnEaf907S74f9+Oo33P7u+JFPafWoABOrjwYMHkZSUBP//lr/JK+5qSfsvSF+nKxLecQpglFF8ChAIDmiy0MOpdes20LoZwUkPtMRDB5Gbm4uYmBi0atVKhpZu23AWEMiV+cb41qZ6kvW3ir3DtgpNEnqQGx9Gtq4x7vggAj171vb2qSDNBVTW/m768X2+9Khw46mpTHqsOe4bUNfUpCv6u0BbGm0V2tESFxdnVxe6jx5M9MA+ffq0TYAiaCJ4MpbpXyZiwXLfC7r7dUFPU3It+gK+pLvX5pce/ebI40YPcwLP0orxoU6Bw/TQs1VitP8gXFOcD4FiWuiL75qPwVXdmuFYPucWUwhirqE2kvS32+wvfYDUr19fAEHJ9NTmNxjhnZZPc3JsLeUZUNXvO1MAMaVkvune63NQDb9JOkfh1696Iu6/2IMCxOOKbqDN5SqCJdKF5pMjXQjaKebMCPHmfaW8G5W1PyNQUzzfKBbh4Rf+BYG7vaIGQLh69arwiFNp1LgJ6MPF3XLp4gURsE96duvWze7v1Nk6fAYQ6GG9b98+k5A0uTwpWZmZOHw4UTz8b7jhBlSubPuF4kkdzt7rLCDMeaczOrUubicFJl7W3WuxpkcPcVqHomBNe2tXttpFXzI0WSm+w/zLmb6WE/yWwQ/Fe/53HUjGoy9vVs1hTxFhAZj3XhfTtsZCxOGq7g4rN29CQgLoj6vbgujL5fLlyyCIKvlwSvD73pRQ6eKVHAx85E/V6OLM3GtaPwrzp3Q1pQHOMjRFqr6bxa3kIaBlOHe2CZMngeYTBV2ZF0oGVM3va1CCICqLV5zAR/OLH5K+UijnwYuPFweFUTAibQUtudRHX8UUG0VePFcKPZNIM9KuJCjQ8kys2Vbkp/+3Ff/suOqKeUWvva1rVUyb3N5UR5K+D3INxhiN4r+mDxeCdHci72m93ZYukdrdiNLsEPYpAHbMi/869HSWNSDQ84TeafTRS++fOnXreTQ29AynD1/ytJO+FLRoD7ycqcxnAIG2fZw5cwZRUdFo2KiRxx0ncSgeISUlWbxQmzVr5oxeilxDL+Y2ba67eUurZNdPA0xbhmirUKahpcWlDRo08IhAyRg91I0BoEbjtJc9QlPsssvKLsJtD/yumkN4alYNw4JpN5qCE7MMzf7bXlbceqJpGlvjcoK7A0i6HD582OJ2yrgYrdlq+rsBo//wqZS45B5/f1I7UwbOa/rbkWe47pokb0HTprS33/2teiTOxYsXcclsJxG9UskrZVy6upaSh9uHr3V3aLx+n3Cjj2+D/rcVu9EpIPay7m6L3TIEVJ66eQkUaM6ZQ4IfslDFb5VpJ82i5Sfw8ZfqgSva7nlz5+ItxZTF9aLufovxISioV4/Sd7s/p0iX48ePi2VAY6HYjATt96b//mDuQXy7yv7uogEDBmD27NlSvrTdmYS0xLt161ahReMmTaUsdZMmRw4nCm9V+/btXYplsNUHnwGEnTt3ighPiuysVq26O+NhdQ/tajh58oQYGIpFkBn96UoDyY1NSwL2yu096mPxJz3/u0SDa/p+IrsdFXr50Y8uNPT6HnZX6i95Lb0MqU3Gfbi0o4G2PRrLbfevwoFEdaR9bdeyGn6cf4c4IpYKuXnJ3UuFvn7JhSkrxoQe1PRgMq6HhmjOiB0Nxox3I5/7A7/+6TvLDC891QXPjr4OmRf1w6AzFG8JJQ8dzcnr26s8mVEQyw0E+MYSrd2MCE1xRkXaxXD7Aytw+py6YltK67Gfnxbfzx2Iru2K821Q2u7LuntMbnTyVJHnwN5SjLNq0svw3LlzYm88lZLu9M27rmDIY6tRWFj256bQXDnxz0hTJskcQz3hWaFCL0HShP7IKOTlJF2My1iUb6Oq37emzJ2r153FmIm/2q2qf//+WLlypcteRRntJxsXLlwQH2P0/L6heQsp7SBd9u/bh8LCAuFBIE+CJ8VnAGHjxo3CxdukSVNEuOiyK00geuDTMoNWo0GHDh1cdst7Irz5vc4AwojBzTF1MiVeKU7fSuvsRQbKoqgRL0FP1q5s9YMiaullSJrTQ6m630LTZc+9vRFLlqvjq6X3zfWw6ONeakc1yQAAIABJREFUprZd1t8jtjbSw5m+fl2JBnZmPEmXo0ePiqWpQM01sfZpdJVPencTFizznTTC09+4FfcNNAb6anBON0ZIQJ4DJTxq5p4EOrOB9rFTyc4pxF1jVmNfYvFLUO2F0gev+XowbmhUnCHR/EVID+Q6deTvKiJPQnHwJ3lfKHD4vKh776EkDHp0NbKyHUftK61rbHQIEv8aYaomw9BGpFKmQs8n8nDKLPQypGcUfThSqaRdA4J2KrsOJKHv8OvBsLbqLWtAoJgKWi6pVKky6tbzbHnB2D/hXTl2VMRPNWrUyONdej4BCDQRNmygbWUQW0BkZUKkL+TDiYfEmnvHjh09dkO7O/mdAYSxD7b6f/bOA8qKYunjTU5iFjGAGZWskhUVA5hBBMlBchYBxfxMT5/PiKLkjEhQoooBA/oEkWTiE0RQERWMZFCC3/n1tWZnZmfuzN1dFi5Un8PR3b23p+bf1dX/rq6uMg/0rWEfQYEh7qnvyVN8r6aRZtciwYsn5htjqNtAu+/Jj8ygcZ9m9XVz9HtXX3qaGfm4eFaM+WF3G0ugyHFx7LHZq6YXJii4sHvJb/4wJfLOcDIEPjhggRk4+pMcfb+92dnIx+uZqy9NLGa7zGH/BCgae5c6p7wufvk5KuQcmcJERJ7bBXb7LnND51fMks+zVnRnb2IU1DeJpd6Z3NiUOSWRvW7T35XNxj1VrV0ikDOnvC7uZ+O1gpja8+W875qieRKeqhWr/jANOsw0v2/Y9zdoSpY4xHz6RgtH7D/21DJb/i5nvVGQg5zwqPjHAzc9uBDEeETe+YZcG7SV3240F1w/Malq7GuCIEH3xPiccKI3TiOrOg1B+Gb1KhszlRO3GdKCIDD48+Yl7uNXrFQ5xxbyv/760/zfsmX2qlGNGjVi9YubtG/ffuaXX4IjtLMysBAUYcFh3+cKX6FCkmQkUXeQjGS4O3MiM1nYcyUwL1FlLpEF788/d5u/9gOXJrJgrAsXzkgMkkgLDC45l5AlMzZcFeUKJBUgd2Xg8tdu89df+97VG1cHixQuYPLnl7NgdKqAjXHJm3fvYSe3HPCDJbBL3GTYvmNnWgV4FitawEksZUw+Gyws1/Ti4p/q57ATiSuRu51bRSRK2radK4Gp9pbzn+f9DymWkZY7YaPyRt5SyK4kYbjgmUrWOFIuVkyquWZXisT369e/1vTs2TMWSVy0aJHNfVCqdGlTsmTOHL0gg1zj58YWR8/ZaWlBEJgUeBD4b9ly5XNsd8M1RzwINDwIUZH/nHfVr399yBWk7AyDflcRUAQUAUUg3RGAJN133702jXNU+/zzz+1O/9iSJU3p0jmTt4A1kuD7P/743R49lyqVPc9EWhAEgP7oo4+se+2008+weadzonHVccWK5ZYYkH0qyjXIeVfjxk1y4tHahyKgCCgCisABiEDHjh1Mt25dI9+M9YS8BVyD5RZDTrS//95jb76wthGDld1j1rQhCBLQUeLYY81JJ+VMEND6devMmjXf2WRJFSpUiDwjU4KQEyqsfSgCioAicOAiEJcgcCVxyZIldoN6dtlykR7sOIhxJPzpJ0vtR0kAmGoODv8z0oYgkKwGZlSkaFEbYZ3dc1JcMSSVIDKY+8pR1wwBTglCHBXVzygCioAicPAiEJcgEHjK9X0CLfGMs1HNbvvpxx/N2rXf29tb3MzLbixW2hAEjhcAE1BPLFU62/dpKQH9/fdrbGBR9erVY12HU4KQXfXV7ysCioAicGAjEJcgsEnlBgZJxIoUKWrKV8hecTli6pZ98YXhmIHbNCeckP18QWlDEFAprpatWrXKatcZZc7MUqpOvrtly2az8quv7O0FojyJ9ozTlCDEQUk/owgoAorAwYtAXIIAQuTiYePL0cDRxxxjj8+zch00kRNipdm4YYO9VkpMXU60tCIIMC4iP7lHTUAhxS1SzR7IkcKqr1datw5Ack4TN4OiEoScUDntQxFQBBSBAxeBVAgCKHB8vmJFogAe1x1PTPHmwZ49u83Kr1aaTZs2JspF50AGRRmdtCIICI0bhQIX/BcwuB4C84piXTC0DRv+MGu++856DjijqVixYkoEQwnCgTup9c0UAUVAEcgJBFIlCFJbgtTLtCOOONKUKl3KFCpUOKk4fG/b1q32JgTkgHgDPOI5cbSQtgQBwdn9E7BIxTNIQuEiRc0xRx9ljg1INgGIv/7yi61UuG37NpuVhSxxVHBM1fugBCEnpo/2oQgoAorAgYtAqgQBJDgiIBU5R+isWQUKFLQ3EEiiFHT9nqOJH9Z+bwtWSfVdMqBSByQnW9p5EOTl8QLgliHntBTPkUxm3HTIY/KYbdu2WvAS2ceMZVjkUADIrER3KkHISdXTvhQBRUAROPAQyApBEBTwIkAUEnU3Eg3vOAWd+AcxYL2TNY2/c1ROUGJ2rzQGjUTaEgR5GY4aiAIlgNENmvtlIQ423/UJJ9h86VktNaoE4cCbzPpGioAioAjkJALZIQjIAQFg48t6g7c8rAkxwBMeN44u1fdMe4IgLww54CokwG7cmAjWAEDqjxNvEBWjEAc4JQhxUNLPKAKKgCJw8CKQXYLgRg5POesZ6xo1idjgsqaxtmXFC57qqBwwBCHVF8/K55UgZAU1/Y4ioAgoAgcPAjlJEPY1akoQUhgBJQgpgKUfVQQUAUXgIERACcLWbbGKi361Yrl1j5QpU8bGAKR7U4KQ7iOo8isCioAisHcRUIKgBGHvapj2rggoAoqAIpCWCChBUIKQloqrQisCioAioAjsXQSUIChB2Lsapr0rAoqAIqAIpCUCShCUIKSl4qrQioAioAgoAnsXASUIShD2roZp74qAIqAIKAJpiYASBCUIaam4KrQioAgoAorA3kVACYIShL2rYdq7IqAIKAKKQFoioARBCUJaKq4KrQgoAoqAIrB3EVCCoARh72qY9q4IKAKKgCKQlggoQYhJEL7+eqX54/ffzamnnmpKly6dloPtFlozKab9EOoLKAKKgCKwVxE4kAjCvHnzbJGos84+2xQvfmgs3PJsiUkQ1q5da3768Qdz5JFHmooVK8bqfH/+kBKE/Xl0VDZFQBFQBPY9AgcKQfj111/NF198YQGtVPkcU7BgwVjgxiYImzdtMsuXf2k7PeOMM8xxxx2XI2WXY0m5Fz6kBGEvgKpdKgKKgCJwACFwIBCEbdu2mUWLFpk9e/aYI444wpx+RpnYIxSbIPz9999m7fdrzLp160yePHnMUUcdZY8bihYtGvth+9MHlSDsT6OhsigCioAisP8hkM4EYffu3eb7778369evN9u3bzdFihQxZ51d1uTPnz820LEJgvS4etUq89tvvzoPgCzsrw3ZChQoYE455RTLnAoVKuSIqgRhfx01lUsRUAQUgf0DgSCCsGHDBrN69WqzdetWuyvfXxubemkcKZx88inmsMMPT0nclAkCgGzatMl6E2Al6dJgT2eeeaY5/B+AlCCky8ipnIqAIqAI7BsE3ARh165dZtmyZWbjxo37NTHwI3XcccebY0qU8GyQ46KZMkFwd7xnz24DS3ERlbjPzbXP/fLLz4YAjR3bt9ujkXPPPdcUL17cKEHItSHQBykCioAikJYIuAnC8uXL7RF7vnz57Bpy/AknmEKFCu+378V6lzdvXrvuZbVliyBk9aG5/b2dO3ealSu/Mlu3bDFHH320KV++vBKE3B4EfZ4ioAgoAmmGgBCE33//3Xz++ed2Q3zyKaeYY44pkWZvkjVxDwqCADScG638aoVlf7Vq1TLffPONady4SdZQ028pAoqAIqAIHPAICEFYunSpPVrAc0Cg38HSDhqCQOzE4kUL7bhWqlTJ/Pbbb0oQDhYt1/dUBBQBRSALCEAQOnfuZEgyxK0AyAEk4WBpBw1BYEAXLfzYuojKlStn2aB6EA4WNdf3VAQUAUUgdQQgCB06tDcLFiywBKFipcpZCvZL/cn7xzcOKoKABwFPQtmyZe1NDCUI+4cSqhSKgCKgCOyPCPgJQqVKlU1B13X5/VHmnJRJCUJOoql9KQKKgCKgCBwwCChBiFmL4UAYcfUgHAijqO+gCCgCikDuIKAEQQlC7miaPkURUAQUAUUgrRBQgqAEIa0UVoVVBBQBRUARyB0ElCAoQcgdTdOnKAKKgCKgCKQVAkoQlCCklcKqsIqAIqAIKAK5g4ASBCUIuaNp+hRFQBFQBBSBtEJACYIShLRSWBVWEVAEFAFFIHcQUIKgBCF3NE2foggoAoqAIpBWCChBUIKQVgqrwioCioAioAjkDgJKEJQg5I6m6VMUAUVAEVAE0goBJQhKENJKYVVYRUARUAQUgdxBQAmCEoTc0TR9iiKgCCgCikBaIaAEQQlCWimsCqsIKAKKgCKQOwgoQVCCkDuapk9RBBQBRUARSCsElCAoQUgrhVVhFQFFQBFQBHIHASUIShByR9P0KYqAIqAIKAJphYASBCUIaaWwKqwioAgoAopA7iCgBEEJQu5omj5FEVAEFAFFIK0QUIKgBCGtFFaFVQQUAUVAEcgdBJQgKEHIHU3TpygCioAioAikFQJKEJQgpJXCqrCKgCKgCCgCuYOAEgQlCLmjafoURUARUAQUgbRCQAmCEoS0UlgVVhFQBBQBRSB3EFCCoAQhdzRNn6IIKAKKgCKQVggoQVCCkFYKq8IqAoqAIqAI5A4CShCUIOSOpulTFAFFQBFQBNIKASUIShDSSmFVWEVAEVAEFIHcQUAJghKE3NE0fYoioAgoAopAWiGgBEEJQloprAqrCCgCioAikDsIKEFQgpA7mqZPUQQUAUVAEUgrBJQgKEFIK4VVYRUBRUARUARyBwElCEoQckfT9CmKgCKgCCgCaYWAEgQlCGmlsCqsIqAIKAKKQO4goARBCULuaJo+RRFQBBQBRSCtEFCCoAQhrRRWhVUEFAFFQBHIHQSUIChByB1N06coAoqAIqAIpBUCShCUIKSVwqqwioAioAgoArmDgBIEJQi5o2n6FEVAEVAEFIG0QkAJghKEtFJYFVYRUAQUAUUgdxBQgqAEIXc0TZ+iCCgCioAikFYIKEFQgpBWCqvCKgKKgCKgCOQOAkoQlCDkjqbpUxQBRUARUATSCgElCEoQ0kphVVhFQBFQBBSB3EFACYIShNzRNH2KIqAIKAKKQFohoARBCUJaKawKqwgoAoqAIpA7CChBUIKQO5qmT1EEFAFFQBFIKwSUIChBSCuFVWEVAUVAEVAEcgcBJQhKEHJH0/QpioAioAgoAmmFgBIEJQhppbAqrCKgCCgCikDuIKAEQQlC7miaPkURUAQUAUUgrRBQgqAEIa0UVoVVBBQBRUARyB0ElCAoQcgdTdOnKAKKgCKgCKQVAkoQlCCklcKqsIqAIqAIKAK5g4ASBCUIuaNp+hRFQBFQBBSBtEJACYIShLRSWBVWEVAEFAFFIHcQUIKgBCF3NE2foggoAoqAIpBWCChBUIKQVgqrwioCioAioAjkDgJKEJQg5I6m6VMUAUVAEVAE0goBJQgHKUH47bffzc033+woa548ebKtuHv2/G3c3RQrVszkz5/P9svftm7davbs2eN5zmGHHWaM+dv5zObNmz1/L1CggClatIjzuz///Mvs2LHD85lChQqbwoULOr/btm2H2bnzL89nihc/xOTNm9f1nC3Oc+WDxYsXN3nzJnBA3ihZduz40/z5558Rsmw3O3fu9MmS8Rxj8piNGzd6/o6cYCey7Nq122zdus0jb/78+U2xYkWT4lKkSBFTsGAB5zP0sWvXLs+z3GPEHzZv3uIZo7x585nixYs539m5c5fZtg1ZMpr/M3/9tdNs377d8xm/LJs3owu7Q2X5+29jtmzxyoKOHnpocec7u3fvsZ9xN7++7Njxl/nzT6++FC5c2BQqlKEvW7duN7t2ZYwRzwGXfPky9IXn/I1QrnbooYc6+s6fNm3a5JOloClatLDzuyB9iZKFL7vnSNBzgvVla1JZguaRe4x4DuPs15dDDjnEwYUHbNq02YNLvnz5LHZiB4L0JV++/OaQQ5LrbtGixUyBAgnbkXgO+Htth1t3g/QFXJj30oJkiWNf/Lq7Zcs2s3t3xjzy6wt6ia3z60uUrStYsKApUiRDX7Zv32H++strx6LmdE7YceQX21O/fn0DSViwYIHZvXu3qVSpsilYqJBHtw7kH/JsOUgJwh9/bDBXXHGlM7YlSpQwTP7sNBbLH374wXaBobjmmqtMqVKl7M8s6lOnTje///678wiUuXv3rs7PGzduMuPGjfeIcNppp5krrqhrRPGXLFlq5s2b7/lM1apVTfXqVZ3fvfHGW2blypXOz8jSrFlTc/jhkBFjF9sXXpjgmXz037ZtG2fRZYEbPXqsnRTSTj/9dCuLtIULF5kFCz72yFKtWlXDP2lvvjnHfPXVV57PtGnTykBGaBiR554b5Pk7hqRhw+sdWX788Sczc+Ysj7E+/vjjTcOGDZzvff7552bu3A88/dSpc7EpV66s/R3EjD7Wrk2MjzT6oC9pY8eO9yx0Rx55pGnevKnz9zVrvrf9uNuxx5YwjRs3cn61bNn/mXfffc/zmcsuu9ScddaZzu8mTJjo0QWMef3615oTTjjBfgZ9eemlqWbDhg3OdzCO7dvf5Py8fv3PZsqUlzzPOeOM003dupc7+rJo0WLz0UcLPJ+54ILzTeXKlZzfzZr1qvnuu++cnzHUjRvfYI444gj7OxbByZOnZCKmnTp1MHyWxmI6cuRoz3PKlj3bXHJJHed36C366241a9Y05513jvOr2bPfMKtWrfJ8pmvXznY+0Zhjw4aN8PwdfbnhhoYOkf7xxx/NzJmvePSFeXTllfWc7wXp7qWX1jFnn322/Qx6Dy5r1671PKtZsybmqKOOcn43fPhIDy4lShxjGjW6wSHjq1d/Y157bbanjxNPPNE0aHCd87tPPvnM/O9///N85uqrrzSnnHKK87vRo8eYLVu8pKdRo4amZMmS9jMspBMnTvbo7uGHH25atmzu9LFmzRqLi7uVKXOGufzyyxx9CcLFr7tTprxs1q9f73QDyWO+HnlkQl82bNhoXn55aiaS3KNHN+c76PX48RM8slSsWNFceOEFzu/mzn3ffP75F57PXHhhbVOxYgXnd27dRQ/cY+P5Ygo/MBfE7vXo0d307NlDCUIK+KXtRxcvWmgXirJlyxolCEoQUGQlCMYuhEoQjFGCYIwSBGPnghKExDKvHoR/6I56ENSDgCqoB8FYr4B6ENSDIDtB9SCoByFtvQKpCL4vPQi47MePH29++eUXR2Tc+nfccYfH7fb88897XunMM8+y7js5Yvjoo4/MO++84/nMBRdcYC688ELndzNmzDDLli1zfubMk3M03OU0zpOHDBniiR+g/549ezrHLJwhDhz4nOesEffr9ddf7/SLW/T999/3yFK7dm3DP2kzZsw0y5Z53YTdu3f/51w5ccTwyCOPePrAtd2qVStHlu+//95MnDjRE8tQunRp07JlS+d7ixcvNm+88YannyuvvMqcc05l+zs8Ry++ONF89923ns/wHDkG4g/PPfecJybi6KOPMZ06dXS+s3r1aiuLux133HHmppsyXP9Ll35iZs9+zfOZa6+91lSokOEaHTp0qPn111+dzxDHwDHQSSedZH+HvowZM9b8/vtvzmeKFi1qevfu7fyMK330aL9bv6zh3FT05cMPPzRz5871yHLZZZeZatWqOb+bNGmSx61fsGAhe9x09NFH288QIzJy5MhMLuO+ffuaQv+cx3JsNWDA057nVKpUyVx99dXO79Bb9Nfd6tSpYzhmkDZ16lSzfPlyz2f69+/vHDGAy1NPPZVJX1q3bm3P/mnoC2Ptjqs46yzmUUPnex988IHhX0bLY66++iqDzDRiDyZPnmy+/darLx06dDBsJqQ9+eSTniOGkiWPs9hJvA/Hay+95D0GOvnkk03z5hmu/48//tjMmTPH806NGjUyZcqUcX737LPP+mKC8pjWrVsZjitoHL2MGDHCcyR15JFHmS5dOjt9BOlu2bLlTP361zn68sEH/zMffOCd037dRefQPWmFCxexsoi+cIw6duw4s22b90gEWyd6yWcGDx7seecqVara4zFpr7/+ulmyZInnM3Xr1jVVqlQJ1N1jjilhTjghgUd2mnoQXLNCYxASYOxtDwKGbdy4cZkIwp133umMBudyLFDuJoZNJtb8+fMDCcJFF13kfG369OkegkBAX8eOHT0EgcnpDjCk/169enkIAkbJHYPA0YyfIPgXH8iBn6x88YWXIPTo0cNDEB5++GHPO0MQMPgSE5Iw+C9mIggs7tIgCBgUd7vqKghC4nw7QRBezGTw6QOyIW3gwIEegnDMMRCETh4jSz/uBkFo166d86ulS5ea117zEoTrrrsuE0Fwk0UWFBYNL0EYY377zUsQbrnlFuc5GOlRo0Z5ZGGMGjRo4CEI773njYe4/PLLPQQBwuM+92fRb9u2rYcgsPj4Ay/79evnIghbzdNPewlC5cqVMxEE9NfdLrnkEg9BePnllzMRhNtvv91DEFiU3Q19adOG+JkMgjBhwgRPDALk1k8Q/OT2mmuu8RAEiJOfIDCP3AThiSee8BGEkpYsCkFYsWJFIEFo0aKF8woQhLfeesvzTo0bN85EEPxBoLyzmyAMHz7cQxA4j+/SpUtS3S1XDoKQQSghTX5c/LqLzrkJArExzFc3QRgzZkymYF5snZsgDBrkjT0ilgoCII35zLx2t3r16nkIglt3IQgnnpiI+cpOU4KQgZ4eMfyDhRIEJQioghIEYxd9JQi7jBKEhHFUgqBHDNkhXGnz3X19xKAehISqqAfBGI4Y1INgjHoQjFEPQsIuqAdh/1tK1YOgHgSLgB4xJBRBPQjqQUAPiEFQD4J6EPSao+ZBsLNAjxj0iEEJQmJB0CMGJQjuvaweMegRw/7n29gLEukRQ8YtBg1STCiYBikaeytDgxSN0SBFY292aJCi5kGQ5VePGPSIQY8Y9BaDEgSjBAFDoARBEyW59+ZKEP5Bg9S/kjY2q84L8pOTZpTmT7Ws1xwzUNUgRQ1SFG3QIEUNUhRdyG6Q4mGHHW6OOiqRuyM77Y8//nDqsWgMgsYgWF0iKMlfSClVJSPQj+InShC8SZs0D0Lmq2J6iyExu5QgKEHIKYKQP38BU6BARhGyVO23fB4bLvkalCAoQVCCoLcYHFuitxg0SFE2DHqLITEt0iVIUQlCVilR+Pf0iOEfbPaFB4Fsa/5Uy1GZFElV+/bbb3tGlFTLeyOTIoulu9xtnEyKZFH0plqeYdLJgwD+7gqKcTIpUg3Sm2o53TIpkmr5a0enDoRbDP7Mm1GZFNkxkhbanWo5KwSBrJokmTrYMymOHTvWlnx2t72RSZEx+vrrhO4qQVCCkC0Ekt1iyA2CQJlUd+pcjFLv3r2cd6Lc88iR3tS5lO8lR7y4vCjfS750d6tRo7qpWbOG8yvKy65YkVFiOX/+fKZVq5aG8q80Ji55/v/8M6PWOv137NjeSVdL+V5K2bpTLVMaFlmkUUZ4/nxvbn2/LLNnv26WL1/hkZeSxYceeqj9HbUYnn76Gc/fkfPGGxs5slBCe9q0GZ5UyyeeeIKnxPKnn35q3nknc4nlChXK2745PqLcNmmb3Y3nSIllfj9ixChPydyjjjrS5pmXRhpW+nG3kiWPtXUUpFGids4cL4mrV6+uofyxNHLV//ZbRulvFpQbbrjeSZ1LuWfK93IeKq1o0SKmc+eMtM/r1q23NQfc7cwzy5grr7zC0ReS8Hz4oTe98UUXXWjOPTejxDLYulMKFypU0DRt2sRJzU2K3wkTXjTbt+/wPItS5e5yz0OGDPP8vXz5craUsDT0Fv11N0pPV62akVv/lVdeNStXZpAVPturVw8n1TK4DBo0xKcvh5kmTW401KqgoS+MkZvcnnHGGbb8ujS/7ubJY6yspB6moffTp88wlPd2t1atWjgphfk9siCTNEp/g50QhK+/XmVmzfKWWC5dupQtTy2NEtiUNna366671px22qnOr4YPH2E2b97i/Iy8N954ozn++OPs7yj3PH78CwYbIu2IIw63dSGkffvtd2baNK/uUoL8iivquWq9ZJ7TlHiXMtj0NXHiJPPTT+ucfin3fOONjQ1zhQbBnjRpstm2bbvnnW655WbnZ/SacvLuRt2Uiy/OSBn/zjvvmk8//czzGUq4u0uVM0bffJOol4EtyYmmRwwZKKoH4R8s9jZBwIhgtChSIo1FGSMrjck9btx4j45Tx54JKgQBYzJvntfgE9xTvXpV53tvvPGWWblypfMzAZMsYIcffpj9HYV1XnhByz2DhZZ71nLPMlG03HN6l3uG1Lk3NFklC0oQlCCYP/7YYK644koHCSUIWu4ZZdByz1ruGT1goZk161Wzdu1azzrTrFkTQxEkaXjZ3B6EEiWOMY0a3eB4EFav/sbg0XM3Ciw1aHCd86tPPvnMUBnV3a6++kpzyimnOL8aPXqM2bLF67Jv1KihKVmypP0MHgQ8Tu6CTnjiWrbMqBq5Zs0aM3Om15uBVxDPiWxAFi5cZBYs+NgjS7qUe1aCkFVKFP499SD8gw3KldVbDPI93H6cg9Hy5ctrKJOKO5GGEXn55aket3KixHJ3Z3TwIOD6d7fTTz/N4zJevHiJ+fDDeZ7PVKtW1eDal/b662+Yr77yehBatGjmOmLYZj0VGBVpyNKuXVvXEcN2Wylw9+49zmc47sB9Le3jjxcaXLXuVr16NcM/aW+88abnuIPf33RTG8O1UhpuwWef9VawxNOBC1aq81E5jrLRO3fucvo94YTjPW7azz77zLz3ntdNe8kldQxubhpjNH36zEwGHyNLDIE03J5uI4vbtEULr5GlH3fDrYyLW9oXXywzuEfdDSN89tlnOb8aP36Cx5uES7oU5xo2AAAgAElEQVRBg/qGoxPRlylTXrJEVhpHDB06tHd+Xr9+vZk0aYrnObjS3R4nDL7/GKh27QucMth8ecaMWYajE2kcG+AyPvLII+yvwIPFx70Q8vsuXTp5jhhYLN2tXLmy5tJLL3F+RenpxYuXej5Tq1YtU6XKuc7vWExxy7sbXja8YDQqkPqPMg477DDTuPENzhED+oLredeu3U43p59+urnqKrfufmw++si/EF5iiLOhYQ9mzpxlvv/eSxCaN2/qOWIYOnSY2bHjT+c5EASwkyOGVatWm1df9Vb2LFXqRHP99Q2c71Ae3H9syHHIqadmHDGMHDnalml3t8aNG5njjssgCBMmTMxEEFq3ziiJ/t13a+w8cjeOpCixLASBIyk/LnXrXmaoKitt8uQphuMtaRwxMI+knDxHDByn+qt/clQkjc9Axt2tUqWKhuMvae+9N9d89tnnns/wdz4nDRInussczwkPAtVv9RZDAmElCB71y9oP1D3fuTNjsaUXDFqTJk2cXUBQHoScClL0l1jOqXLPGqRoTG4FKSaOgZolLfcMYerdu7ejpFruOQEFCxPlht3lnnMrSJHS0+6FME6QIp4BSntLy0qxJhYw3nl/LfecW0GKboKQNeud/Ft6zVGvOWZbr7JKEJjkRPa6WXXULYb58+ebd955xyPz3rrF8Oyzz3oYeZxbDH6yMmNGet1i0GuOes2RyaXFmjJMzP58zVEJQraXr6QdqAchB/BVgpABohIEY5YuTbdrjlqLAQ3WWgzpl2pZCUIOLGBJulCCkAP4KkFQgtCuXTsHBCUICSgqV65scwtIw/OFB8zdNJOiZlIUfchKqmUlCDmwgClBSCCQLA9CdmBWgqAEQQnCVvP00097ppESBGNWrFhhXnrpJQ8uJ598smnRooXzu6zEIPDlNm3a7LcxCGPGjDHkUnG3vZEoSQlCdlau6O+qByEao8hPhBEEEplIJPKBWKwpqPKbHjHsX0cMXJ+bO3euR4cvv/xyU61axk2T3Cr3TAZQMoGm6kHo37+/IbKcxjwiMNDdjjjiCLtYuoMUJ0yY4EmURBT+DTfc4HwtSHf31RHDggULzJw5czzv1LhxY1OmTBnnd8QDuW/XHAwEYfbs2WbJkiUeXOrVq2eqVMlIrKUEIXJ5ytYHlCBkC77El4MIAgGIBPeUL5/I5Ld582Z7bZD/SosTpFiqVCnTqlUr59rNm2++aRYuXOiROipIkec0bdrUISu//PKLlWXnzp0eWXr16mUOOeQQ+zuyLfqDFInQlp0y1xNnzZplPv/cew0pDkEgWl+IExnVnn/++UwGnwhtkYXsh/6odP7WvXt3Z+F49dVXzSeffOLp56qrrjLnnJPIGMgVKPpwZwzk91xFrVgxcW2KxYd3duMS5xYDUfTgQopi2rvvvmvmzfNeRfUHevmLNTFG119/vZOxjittw4cP96SrJVPgLbfc4rxj0C0GdqeMtVwLDDKyUQSB2zWMEX3R1q1bZ8aNG+e5Fsvv+/Xr57wz+uL3IJx00kmmZcvENTvwnzZtmlm+fLlnjOIcMZDGWq6iortg525xCALj2KFDB+f64eTJkz3JxOgvDkFo1KiROfPMM+3jN27caHXXfT2avATImyzV8tFHH231RQq7BY1RHILglgV9GTLEm9WRfA1dunRxoFq9erWdA+7GPGQjk0xfooIUIW/oS+l/yqajlxA0rqS6W5QHAULEe9O4rvjyyy9nGiMlCB5I9/oPShByAOIggkC3TNBLL73UGoJFixZZd6O7xSEIGJrq1avbBRUj8NZbb2Vy3UURBJ7JXfHLLrvMcGc5TJYogkA/nBNiIEkZzULovxsfhyCwuDPRWVDZUWK4/AY/iiC4Zfn5559tfQr/Heg4BAFjXadOHWsgkcVPIOIQBL4rYwQujJE7zS+yRhEEPsOz0BfGnF3lqlXefABxCALfZQy4/saOE1n8YxRFEJBFcCEnArJIvnv3OEURBPS7Ro0aVnd//fVX895772VaNOIQBNJy161b1+ZcgHj5xygOQUBuZCEfAoSHeAh/3pM4BIExuvjii62+kNfBn7o7DkHguzVr1rQEjFwWyOLX3TgEAcKO7vIeQbLEIQjIQh0X+iI3ARsQN0EO0l02F5AAd+O96Yf+iDP55ptvMlnWKILAd88//3xLNMDl/fffz6QvShByYMFKoQslCCmAFfbRMILA5zHYGMqgBB5xCII8E5aOIQhK5hSHIIgsyONfvPgbssQhCHyOiRwmSxyCwPPog76CZMHgxyEIUbLEIQgii+xa/GMchyAIfrwT4xyUEz4OQYiSJQ5BiCNLHIIQJQt/jyIIblnC9CUOQYiSJS5BEH0JG6M4BCFKljgEIc4YxSEIUbLEIQhxZInyIMicES9EWLKiKIIQRxYlCDmwYKXQhRKEFMDKCkFI1n0qBCFZP3EJQpQscQhCFFxxCUKyfuIShChZ4hKEZP3EJQhRssQlCMn6iUsQomSJSxCi+olDEKL6iEsQovQlKgYhSg7+HpcgJOsrLkGIkicuQUjWT1yCECVLXIIQ1U8cghDVhxKEKIRy9u9KEHIAz2QehKhFOSpRUhzxlCAEo6QEIRgXJQjBuChBCMZFCUIPe8yGZ6RSpcqm4D+xRnFsc7p/RglCDozg9u3bzK5dGQF/cbvMkyevuf32/s7HOQMcNGhQ3K87n+Pc7sILM3KYk73w//7v/1LqB29Gjx49PEGKZHVMNbc5ZAUvgrSZM2eaZcuWpSQLHgSC29xBitR995+NRnV65ZVX2rv4NFzcROu7aw5EfZ+/cxbfsWNH56PESyBLqo3Fp0KFCs7Xhg0bbn799ZeUusGDcPPNGSVzOQfmOlmqjVgUYkmkEbDnj3eI02efPn2cIEWutA0YMCDO1zyf4Qyd2ABpU6dOzRSrE9Up+kIgr/sWA2MddHyVrC9yNkjAKt+dMmVKpniHKFnwIODNkCDFr776ygbbpdoIQKSuhrSBA58zmzdnlHKO0x/Bs507d85x3UXn/DEIceS5/fbbnWBrqtoSVJlqIxblvPPOc76mtxhSRTC1zytBSA2vwE9ntQ55YlHu5vRJsaaxY8elLBHGvkYNb4Ekd7GmOB0iy003UaypqP04tdypIJcqQaBwlLtY05tvvpWpWFOUPBRratjwelexpp9s4ZxUCcIll1xsypXLKNZEUSJ/db4oWSjW1Lx5M+djVMSjn1QbxZrOOisR/U574YUXPcWa4vRHsab27TMSMq1f/7OhcE6qjWJNlStXcr5Ghb9UiRNf7ty5o6dY04gRo1IVxdSqVdOcd15GsabZs1/PVKwpqtNEcS+KNRWxH00U95qVEkGg0BrHHWXLnm37SFRzfCVTsaYoWUqUKGELRwlBgFC++qq3mmNUH/ydYk3uao6jRlHN0VusKaofqjm2apWRb4FiTcyjVJtfdyki5i7WFLc/d2E6NkPjxr0Q96vO5y66qLZD4vilEoSUIUzpC0oQUoIrZz/MokylOmkQBKosptogCNWrZ+wI33jjrUzXg6L6RJa2bblLniAIXPmjsmFWCAIkQdqbb84x7KJSady4SBCEhCw//pggCKnuCOvUgSAkqvPhQaCPtWt/SEUUWwiICn7S1qz5PktG1l8yl8p77KJSaUWKQBBucr4CQcBYp9ouuOB8D0HIqpHt1KmDhyBQcTDVRjT/eeclrqLSZs9+I2VvBvpC9U83QYD0pKovl15ax7lmGlbuOer94pR7juqDv8cp9xzVT5xyz1F98Peocs9x+uAz7s0QBIGKpqm2Cy+EIGR44rKqu3Gfq8WatFhTXF3J8c8pQQiGVAlCMC5KEML1RQlCZmyUIGTfZCtBUIKQfS2K0cOff+7I9CkIQp8+GYlvSLwyfPiIwM8VLFjI7oh2796V6e81a9YwtWrVcn5P/Xl/Qhr+WKBAQev6/OuvPzNdxUOWTp06mUMOKWb74UyZWvd+DwLfpx9+HxR3wY4Qt7G0116bbb788stMMtMHz6RMtv+IBsPWtGkT54iBXT9n0/4jhrx589kcE2AStFskGE92G3gQOAvGA+BvYEsLkoVIcDwr0riD//LLUzP1IbKASZDX5YorrnC8GXyZ4xtyJoTJwhj5GzEIXbtmJL756ad1NiGNvxHbQs6AMH25+OKLPOe4U6dOC7y3LvoSpLs8s2fPHh4PwqBBg0NlCRsj4lXcHie8PCtXrgzUl7x589hkTUH60qxZUwM+NPSFsfbrRMYYZZ5H6GLdupc7ic347rRp0w1HSqnoy7HHHmuPpOSIgfwRM2bMDNUXdHrPnt2Z/l6/fn1z+umnOb8fMmSY2bIlI8ma/IFcIn//beyc9jdiM9q1y/A4hetuYk6HyeLXXXQO3cuMC3M6rwnTl759+zhfIUHayJGZj6SidPeSS+o4yc/oLEp3MwmZ4i+UIChBSFFlUv84Bm3Tpg0BxjO63DNfwtgUL36YTRqyY4c3vzl/j3uLoVixQ0z+/AXM5s0bM+VTiJsHgbvOhxxS3BpqgjP9Le41R2TJly+/2bJlUyZZ4l5zhBwULXqI2bFje6BRinuLAWxpyOJffOJec8TAFi1azGISZKzjXnMsXvxQS5w2bdoYSBCiMinyJXJmFCtWPBSXuLcY6IO+0N2gOJs41xwT+nKoHR/Gyd/iXnOM0pc41xyj9CXOLQbGBv1P6MvmTLjEveZYoEAhS2i2b9+aKUMlfce95njooYdbGZjT/hb3mqPoS1zdDUqUxLPBBRIWZOv4e5xrjlG667/m6E8TLhiI7qZurb3fUIKgBCG7OhT5fSUIX2TCKMrgx0mUFGXwlSAEEyclCMG4KEGIR26VICQ8jgdD0yDFXBhlJQhKENSDoB4Et6lRD8LvgVe61YOQCwtSCo9QgpACWFn9qBIEJQhKEJQgKEG405MHISjnixKErK4ye+d7ShD2Dq6eXpUgKEFQgqAEQQmCEoRcWG5y9BFKEHIUzuDOkhGEO+64I5JVpxqkSFndoEyKUUGKPXv2NMWLJwKwgso98/t9EaRIJDnBSP5bDFExCGRSPPfcRBIebhZQ6jYoIVCyIEUyKfqz0flL5tJ/VJCiu6w0nx88eHDgLYZkQYpccyR7obQffvjBjB6dOfdA1C7MH4PA+/gravKMqCDFvn372uqgNJL4BGVSjApSJJOi+wYOtw+CbuBExay4gxTRF97Jf4shSl/IpCiZN/kuGTP9lSNzK0jRXcoZfJ955hlPqXjRgWRBiuTw6No1I88K2TKZR/6WapDiyJEjzU8//ZSpn6ggRWyd3O6gumdQJsUo3SWTojsLqAYp7t0FTAnC3sXX9h5GEPgbKYUpb8pnli5dal5//fVMEkURhJNOOsk0adLEXvnjpsPw4cNt6VZ/iyIITZs2taV5keXzzz83s2ZlzroWRRAoBd2gQQMb/Y4s48aNs6Vbg2QJu8XAooMsJ5xwgpVl8eLFtgytP5I+yuBj7LmihcybN2+2VwIxTP6WjCBwXbBDhw6Gq5c0yg1TttjfoghC+fLlDQsQuHCddejQoYHR68kIQiKZVVtbmhcskGXu3LmhBj/sdgclj8k8iCws7OgLhDDzGCW/xUAgaalSpewtlE8++cTMnp05Y2AUQTj77LNtKWxkoSw1hCfo+mcyggBxQv9FXxYuXGjmzJmTsr5AJomSZ75RKht98csSRRCQBX2hRDVj9MEHH9h/mfUl+S2GKlWq2PLs4EdCLRZl5pO/JSMIfBdZILmMEXpLKeZUCULZsmXtGNEfuEBug7KaRhGEdu3aWd1FFmobUOY6TJYw3WUeEUyKLOjLsGHDrExhuptd8663GPQWQ3Z1KPL7yQgCCw8515lw5AsIMgJRBIG/Y/TZMVCfnp1lUEtGEPg830cWJh67uCBZoggChh5ZeC/SGiNL0BW5ZAYfWbjqiCxcp1yxYoXN7JjZyCa/5ois9IEsyIE8QbIkIwg8k8RNZcqUsTtScAmWJfk1R8YIWWSMwlI+JyMIggv4gkvYGEXtwty4sNsOy6sf5UHgGh3vRM4MPFZBuSiiCAIkjz7wXCHLunXrsqQvyAIu6C76wn9T1RdwY5xZ3JlH4OLXlyiC4B4j8GBOB8uSnCCgL8iC7iYbo2QEQeb0aaedZucyuATN6SgPAmOILMwDPCqMUVCLIggQFcYIMoq+BOULidJd9AVZqNOCLEGbD2TTa46Ry1KsD6gHIRZM2ftQMoIQp+coghCnj8SkCc+DELePKIIQt58oghCnnygPQpw++EwUQYjTT5QHIU4fCVnC8yDE7SPKyMbtJ4ogxOkniiDE6UN0N8zjFLePnNCXOAQhjjxRtxji9MFnoghCnH6iCEKcPvhMFEGI009O626cZyb7jHoQ1IOQXR2K/L4ShMwQKUEIVhslCMG47C/6ogQh3NwpQYhcCtLuA+pByIUhU4KgBCGumilBUIIQV1fUgxCOlB4xpKJF4Z9VgpAzOCbtBYJAStWsNnYtRYoUs7UC+JfVVqhQYZveeNs2ZPk7S91w3FG4cBGzc+cus3Nn5qCpuJ0iC2lZCUb6++89cb/m+RzvQj/ZxaVIkaI2n30iFXDWcBFZOOPdvXtnlt6HL4Et4x2Uxjpup4kxKmrjFHbtyo6+FLHBYNu2pVZm2C0nufXBN7tjVKhQERs8mMAle2NEKuygOiLx8M1jx4i2P+gLdgH7EpSCPd77kMo9n30n0mEH1XqJ209CdxmjrNs6kSWndDeu7GGf0yOGg/aI4Q9zxRVXZVd/9PuKgCKgCCgCBygCShAOUoLw22+/m6uuuvoAVWt9LUVAEVAEFIHsItC9ezfTq1dPey2TWxeVKlU2BQtpLYbs4rpffn/xooX2Di73ermv3Lp1G/P5518EXrfZL19AhVIEFAFFQBHIFQS4kvzMMwNM1apVlCDkCuL7+CFugsC9axITkQgF0qBNEVAEFAFFQBEQBCjHzWaSku/qQTgI9MJPENzpiN9++x0zY8aM/QaFkiWPM/369TUFCxbYb2RSQRQBRUAROJgQKFmypBKEg2XAkxGEJ5540rz/fuaUqPsKG9jriBHDDP/VpggoAoqAIpD7CChBOEiDFDlicHsQHn/8ycCc6agkaX85hzrssMNNnjzmn7SlX5mvvvoq9vEEV7QqVKhgTj75JBv/QBpWcvIvXrzE5lr3Nz4zcuRwJQi5bxP0iYqAIqAIWASoHUGKaD1iOAgUwu1BIHf7F1984eSPT0YQ3n57jjnttFPtnXAaMQvc033ssSds0Z04rUGD68yjjz5qyQH33Lm7TD/kR2/RolWmIkJKEOKgqp9RBBQBRWDvIICdpnYExeOUIOwdjPerXt0EoUSJEraICrt3Fur77rvfvPXWnEzyNmlyo+nf/zbTp09fW+Fwz56/zSGHFDO9e99sqETXoEHDwKp87o7y5ctr3n33XfPRRx+ZgQMHmk2bNpsCBfKbU089zQwdOtjcdlt/88Ybb3qeXaxYMTN9+lTHg0AVQir3UdiGwBlylmtTBBQBRUAR2DsIcLyL95hCekoQ9g7G+1WvfoLgFq5371vMrFmvZJL3gQfuMxUqVDStWrW2pXGlURp2yJBBpnbtiwKrtbk7ojrc4sULTefOXTOVOB03bqz55JNPzRNPPOF5NtXKPvzwA1u1jDZz5kzTp08/632grG3Pnj3MDTc03K/wVWEUAUVAETjQEMBbrAThQBvVgPfJCkG45567zdVXX23ry5NGF2WhcTaVqNl+eSRBgIV+/PFHth772rU/2H6kjGz9+teZ0aPHmKFDhyUlCHg7Pvjgf2bevHnm448X2vgH+q1WraqpVauWqV69uj0G0aYIKAKKgCKQcwgoQcg5LPfrnrJCEKpUOc88//xzdidPoKG7vf/++6Zr1+6xEi2NHj3KVKhQ3nB04G47dvxpOnToaBYtWpSUILj/CLlYvny5GTDgGfPOO+86z3/yyScMhEObIqAIKAKKQM4goAQhZ3Dc73vJCkHYVy/lP2IQOYhFePfd98ySJUvMvHnzzY8//mjI+HXJJXUMaUFPPPHEfSWyPlcRUAQUgQMOASUIB9yQBr9QqgSB8/6rrrrSnHvueYEdLl68yMye/bpzXBAGI5m42rW7yRQsmDmHN3ENo0ePNn/88UdSD8JPP/1k7r77HjN//kc2aIbI2tNOO83GIlx00YVZDlokvzieEd51Xzc8I/uDHPsaB//z5ThqX2ODHOgLt3n2tSxBGO1vMu1verSv5SEYnH/7i/7EtTdKEPa15uTS81MlCCzCffv2MWXKlHEkLFHiGOfnadOmm/79b488YuCYomfPnp635Hf0zy2K5s1bmpUrVyYlCB99tMDceuttplatmqZGjRqGIMlSpU7MdOwRF0qKVY0ZM8asXPm1OfXUk81NN7UzRx99VNyvez5HfMTEiZPs+zRt2iTlPlavXm2JFt4Qrp82anSDKV26dEr9YHjAksnMQkGeCwnwTKkjY8ymTZvMtm3bDElSstIgc+ABkaOBCwQxK/JAHCUdOPex8Ral0vju1q3e8rtcoYW0ptJ+//0PM2TIEPPNN9+aM88sY7p3724KF069aA2ySN4P3gdZ4jZyh6xfv94e0x1++OH2a4w3eIN1oUKFzLHHHmsKFiyYtEueP27cC+bMM88wV1xxhfPZ7du3mwkTXjRHHHG4adgweQAwz0UWApAPO+ww2wexRXj4+C+bgWOPLWEKFAjPhMr7vPnmW3bu33RTW9sXG4ZXXnnV/P77byZ//oLmvPPOMeedF7xBEcHXrl1rJk2abDcKxEVJI7BuyZKlpm3bNpE4I8sbb7xhvvtujenatYudQ+vX/2zGjx/v2DdwbdKkiTnuuPB5gSwvvzzVXHzxRaZSpUpWFObmq6++Zj2fmzdvNtdcc5WpX79+0jFCbxkPArKF+PHdDRs22A0Z8VfM8aCGLsj3KR991FFHeuYefTCvILuMXdRcUIIQd4am+edSJQju18XIX3rpJeY//3nEbN26zTz55JNm8uQpKSGCoh9//HGGwMeLL77Yxh3073+H+eGHHzL1E3bEkNIDQz7MBKGS5YYNG+3iRcImDO4778xxjF3c5yxb9n+mZ89e5rvvvrMLKjcvUmnIUrVqdWvUkYUF5NRTTzXjx49NaTFct26dWbNmjZNjAqwhdmK848qE8eE6K98vX758lnbKL7440Xp7WMjwzrBjmjZtqildulRcMeznWMhYPPg+/bD4YTBTaV9++aWHIGAUwbpixYpOXo+o/ljwbryxqZXlsMMONX/8scGcf34tM3TokNh98AwMPPJILA8LB1eFwwy9Wy4MPkSS76CrZ555pjXw9AeZo09+RodISOaPF6Ivxpb6Kz169LKLe926dc2gQc/Zx6xatcr07HmzzUtSvnw5M2PG9EBY6IPF5ZtvvrE5VCC03JWHJJNXhb+LLFxFBuegK8mM7e2332lvNUH6Xnxxgg0yfuaZZ81zzz1viQXvCvbDhg21R4j+xt+JQWKTwjzq2LGjuf322+zHWNTat+9gSfekSZOSkn/GpW/ffrYv7M6SJYvsOwwfPtw88sijzvigN0899aQde3/jvSE299xzj9m8eYtp1aqlue++f9mPcX28R4+elqRA4ho2bGD69+8fiC+LO+PM+9DYCIEFxIm4q4xdP/OznB1vf+P4lbFh3oARc/mss86y74Yeff311/ZvkouGOZXsaFYJQpSFOED+nlWCABO+5ZabrbJCCl54YYI1EKk07tR27NjB7o5RfowAjBoDENSCCEIiOHGFVfgyZc6wk4D8CvyemwzsQOI0dus339zb1nrYuHGTGTx4sO2TIMfrrrs2ThfOZ7p27WavafJ+GMlUCQKTb/bs2ebYY0uaE0443u6EuNEBQahWrVpsWcACQ4cxpk+MwPHHH29KlUptUYagkGGT3e0pp5wS+/nuDwpBGDlyhN1tYRgxQkGLVtgDMGwsyMjDYohhzYprFizAhsZCivEFl1RiVViEmzZtbnW3T59bzL///bAdp7fffsucfPLJsTCSwFr0naMxfmaM0Fl+TnY8wGdl8eV9IBRgwqLBWPEuLCyQRBoEM2hXCJZ16lxq85isWfO9ufzyyx2CcPXV11qiDMnASxhGEHi+ZGDlmexkIQiMF4sP48S/X375xRJ/3g1d8rf//vcxM3bsOEM+Ft5DCMLPP/9iPv30U+vF4MbTvff+y1x55RV2Y+LHiOedf35tc8YZp5v/+78vPQQBr8oNNzS23ocBA55KqnvPPjvQDBs23Hokf/jhx0wEYfbsV634EASwDiI8zP3q1WvacYFgkz9GCEK3bt0NHlDmNLoHcQ7zrDCGeCFksyAE4euvV5kNG/6w/TOPuMWFjSQvjL/JcS02acuWrebrr1fa+cezmVPMAzYP9MF4Mj8hqmEyKUGINcXT/0OpEgQU8eabe5kuXbqY/Pnz2R3qsmXLHCBQelySUdUgUczx48eZk04qbRdRvrd9+zbbD0bpqacGZMqk6CcIGDcyLsruFhcepapxaWI4cC2OGzcmqUtTBEfme+6510yePMkweXGpMwnYfbALSaVt377DYtO7dx/zySefpEwQ3M9iIRg48HnzzDPPmBdffMHjLo0rE2OBwWVRi9oZBPX5888/W/KHAcH4Z6UJQXjggfstkcuKJ4NFXXQN/cHYYchSIRl+bDGOkKhzzjknpX44VmjUqLG58MLa9sjtP/951MyZ87aZO/dd69WI01h4WViRH2MsnhoWUzH6yfoBD/QcosDiwXdYhCE8eAwYM+YI/SYjhrw/n6lSpZq59NJLHYIgxzBt295k50IYQUBGiAF6xvhAcCAI/sZCh1ctjCDwDDwxY8eONVOmvOQQBOkH9/pnn31uOnfubK677jqDLgU1FvQ9e3abiy++xEMQuJZN3hVsApuHqMamBZLA5sfvQRgxYrgpXvwQS7ySzQnmHWNTufK5lkwKQQOtcN4AACAASURBVCBXDMSiefOmdkGHVAbt/JFR4lywa+AnBEHmQrly5eyroEuQTXQ5WWMDtHx5whZwNR27wNhxhIm3CJ2CGJB8Dl0MakoQorTnAPl7qgQBptyxY3tPDIIbik8//czuAqIIAkaiQ4d2gZMCYzNgwLOZjhn8BOH111833bv3tNcYmaiDBw+xz+3Vq4cxJo+h2BS1y9ltRDUhCBx1PPzwIzaugRwLt97az3Tp0jnq64F/R7bsEgQWZ+IxaBMnvphyTARG9dtvv7VnlyxIuBXjuK/dL4TRwNAxZhjNk046KeVjBgz+7bffYbvNmzePDXIlY2Yqxx3oxWeffebs/iVBVqpHDPJu7JoglyzocXf98l0W5zZt2pqFCxfZXRuEskGD+uaxx/4bGxvxGPBdns/4sACwm2Sc4hAfvhNEECBgHBFAoCDg7MqTeY5YWCpUqOQhCPKujRvfGEkQ+Cx9hBEEIT8sLBwxJIuJeOyxxzMRhO+/X2vuu+8+6xVgTkyb9rLtJ6xxXFKr1gUegoDHh+OFAQOetscYELuohixugkCM0gMPPGS/ljhyK2eeffaZSK9c+fIVHYKAHp99djknkBsvWLduXUzv3r2TiiMESwgCmzPeU7x6EELsczKCIDrHPEbHINlCEPh/NmcQFcZJCULwcOTZcpAWa8KIuFtYJsWoSbW3/u4nCKNGjbaL+ahRI21yJDI7YmDnzHnLxhJcc821plOnjqZbt66RIglBIEAL4nHbbf3Mf//7+D4lCBjcBx540AY4/fvfD2UpSyTEALc1CxqGCSIV5N4NA4gFaPHixfY7LFgYJHanqVbUxEXKDpsjkvnz55tHH/2vuffee0zLli0ix0Y+gNGCILBjY0eMgcSg4TKWmiCxOzPGfP/99zaYj513KkSFZ7AQQtxOPPEEu6ODKHz77Tdm9uzXUjqGYXw4R5ZkY/TNDjyOB4HPhhEEjhPwJrB48J77kiBA2iErLEp4FqK8UEEEgcWP2KR1636yY3bHHbebdu3axSYIjNd11zUwbdq0NsWKFTXPPz/YzJ//oaPXYR35CQJ2BftQs2ZNm+TtwQcfNHfeeacNuE3W3ASBY5Bq1WqYG2+80bRt29r861/3W68PieOSNT9BgPhxJIAOSWPHX7ly5dBuOK5BT9EPdENiVtA/yAVzHIKAV0kJghIEk6oHwQ8ZbikihYmM3bZti3n11dn2PCuVxm4C16YQlC+++NxWdPQ3P0GYPHmyufPOu83Agc+YevXqmalTp1oXZfv27Wzkcb16V5j7778v1i0CIQg8A/cagVrsOPaVB4EFHeNERsnOnTvZOhdxdpRBuGOgIQfsllkIg84ow8aLHRcLDIZH+mFXimsyKtI5rE92MZA3DNTAgc/GVhWMGO9A4CdeA1yuLDzsJFOJ/OeBcoaPgeT7qWI7deo0Wy9k9OiR5oILLrDkh9gTzsVTTffNe2GQGSPO6PHwMEZxriiGEQQIE2OG14cd4r4kCLwTBJFxw/sU1YIIAuMFTvTFvDznnMrmuecGhl5l9nsQnnzyKRvjBKH788+/LHkqW/Zs07Zt26Tj5ScIbtmZozVrnm/t3+OPPxabILCgQxjuvvsue1MDDwV1b778clnSq9l+gsAD2USgO+jv6tXf2GMPyGVQg5gwXyCgeJgkcFSCWvkOXiaIB2ROCYIShCwRhObNm1kD9tBD/zZ33nmHadasqZ1wGAB2hiNHjoqyATbqGtccwV07dmy3Z/8YO44GtmzZbJo1axEZg0C8AQWjmGhMUncjardv31vNsGFDAs9D/QJSGIqbB8jALgOXL7v3p59+0lxzzTWR7xP0gaweMSDDjBkzbdQ/iyiBkkceeYSN7E5lp4whwohhCFjcMQT0EXQ+HPaCv/76m9210TDQLGJ4D6QmfFxg/ve/D61xZzHeuBES19HqDWMXt0kMQv78BWx0O/0RfIVLNRVceB5GlTPbsOC9KJkkqPWhhx409erVNcRYPP74E1an4xxpSf+y8PFf5hCEDNINAYvT/ARBghTpDxJVuHARuzs95ZSTkxK6vXHEgAzozzffrLZkhUWJcYKAJyM/foLAsQLjRSDlL7/8aud8zZo17FFBWIE2P0HgiIuFmMYRBX/neADyfdVVV4VC7ScIb7/9jlm/fp09IoM4QwrxUt52262xCQIfrFXrfEPswF133WXuv/9+s2rVavP+++8l7cNPEJjTzAn+y/vIcUNYMCpHhXz29NPPMEWLFnGwIw4HQsCYlC1bznoY+FyyAngagxBndh4An0nVg8D56KRJL9rIXiYHO3TIwi23EKj1sGXn/D6x2Ic3rvVw/adly1aGoL6XXppsrzix05g69WXTqFEj88UXGcGP9OT3IGCAuBoF2fAvECxkRGWfeuopsXZiGKDGjZvYiF4mGIYWQz1hwnjnfnmqw51VgvD662+YPn36WCyJ3Oa9MYScb0cFILllhBC4i2nxtzguXv97SjwJY4N7Nys7doggR0IY+b/+2ml3KmPGjEoprwLjLeeu4IFxZBHMSgwCbn12StzGibNT92OC9wJ9wbCWLHms4YycoDP0OJXcDhh9MOXd0FkIHLv+uB4NIQh4UFiA+ZmFAH1mIeZnCB1BkMn6TEYQmjdvYYMdkwUpgo/EIOClkngV5hP6gyzyfMi35GwImlNugsD8JUiSWB6qxvI+PGfw4EHm8ssvC52SfoIAvnI7auDA58ygQYPNwoUf2/mVbPwHDBhgRo0a4wQpPvLIf8yIESPtGP/115/m0EMPs8HDUbd78Bg0a9bM3HVXIg6HIOxBgwbZ8YYYkmeBG1TJmp8g4BGApIhnT26P+McZjy62QDYLcjOB2BuIKMcmK1Ysd4IT0UNsX7KcJ0oQUl0N0vTzqRIElHDKlElmwYKP7Q6XXSAuKwIECQhkp9u2bTsnkCwMFnbppEFu2rSZzaFARDJuNna9ixZ9bK699jrz5ZfLPV/fm3kQxMDhhiToi0WQ4MSwyOI4w41XgvcheC2VxrkiLlFJKsR3MfK33nprSnkDMKYsFCyEGA1c16m64t1yQzZYEN2JWuK+F8YJI//++x/YxYFdGwtrVhqGkvdC7yBzcRdT97NY8JAp1dgDdx+QU+7ok1iL3Si3e1KNzQBT3od3ABfmVyqEhYWPxZC5IcSEcadP+kYe4jXieFiGDx9pTj65tLnsMu/CS30V7vFffXX4ThtckAWvDuPCP3SfBYzfuxvkMBlOzPu3337bnuvzOZ6NR3Dt2u9tsiVyDvBOUY25XLt2bVOxYgXPRyGHixcvNS1aNIvqwgb4kssAW8W48C4LFy602VvBu3HjRrGuUnNUWL16NUvUaOgfwdzMdUg/XtmocvXMY4ipXMdl4cfjhFzoTZjuoOe8h3/TBgEQ/UdX0CPejzkVNS+UIESqzoHxgVQJAoYMtztBOmPGjLWuMaLSUSrOyadPn2EX+qiGa3fWrBl2or322mtm27btpkiRwuaSSy6x54vszthZudveJgjyrIzEI1FvoX8/2BFAVzDAybIDHuwY6fsfeAgoQTjwxjTwjVIlCHQCu+Q+77nnnmOvK0l2s2+//c7ceeddTnKWKAi5nognQc5b2TETZMhZ4ZQpUzLtPHKLIETJrX9XBBQBReBgRkAJwkEy+lkhCEBToEB+SxTy5ctr8CCyi8Jtljjni1fkiFpIxDRw7Yi2e3cijSruLp9X0v49iCBwDofrLajhnoy6UsX3IDh+b4W7PwhMHDc27nd/jn/ph6MKUtBGtYR7eD0O28CPct0wLHmJ+wu4v93Xn9x/g9TFuYGAEcCl6XcRS1/0EZXjn89KLv6gF+LII04tBcnpH9QHYwMucXbxuFEli6K/r7j6IvUPwsYybkxEsjGKK0uU7uJGjnO8kEwW9C3O1VjGiPmYHX3hu/QRlk01Li7YBPrZm/qCPYpyxfP8ZLJwPIB9iXOslGwexZUlSnfj2jolCFGW/AD5e1YJwr54fT9BINCIyPGwhmHs1aun6dChfWgsAdd+unbtbq//hDUCdgiKoiBPUMOYEYBHYqZkCaJIyUswUhjZ4DyS3PfkLQhrZ599lo3eJggsqGGMONt86qmnPXfr/QSB83Kir8NkAQ9ugXCtMKxx35obFmTDDGoYo+HDR9hz+jCDT3Gjfv36mRYtmoeSDa5v9ep1sw20CmvUiHjiicfN6acH48LCQ/pcZAlbwCAYBIqRMz+MhCEDt13IpBjWEkm7ng8do0SQ3RArT5gsLBi3397fXoMLW+C5hUHWTwIkk+HyzDNPh14vhESSLZDz+jDiBAkkLwhXAsMWMnDp06efPVMPaxRje/rpp0JvaBCUO2zYMEMQoTv+xt0fBAFcKIAWhguBkaRNX7EimSxVzGOPPRpaAI15TBzQkCFDQ+c0OkI+BlIohxFlAq3RF4JrwxrXLbnuG3YFFH15+ukBNt16MlvHjaBksQzkECGTJLc4whpBu88+OyAy8FcJwr5YAffBM7NCEJikNWoE1wQgkyJVEeM0JkZQoBpV8ujHbzzdBOHxx5+0hVMI7OEaor8yMxOcTIjsIiAJBBn5G7smssRxNELqVe5I+xtBQFzRgyRwu4KoZ3/DiLAgU7SHglNBi+5rr822O4kOHTqYW2/NHK2M9+HGG5vYYCLu1Qel62X3O3fu+xYzsioGZcaTRZCdQFABGWSnAA3Po6Jd//63ZZKXxY/I8R9//MFe2StW7JBM74ynhGp03K9/4YXx9raIu+EJIbc+xInP1K59QaBKgC3v1aNHN1vd078AQZa48spYcZ0waMfGGFPDg0jycePG2oqB7oYekf1uwoQJNujtiivqZZIF79X//veBQfcgCZBKf0vcwW9mfvzxJ5tiOSjKm5se8+bNt7dFyPYXFIwnCw/vQsEh/zuju9xkYWEIk4XrnQ0bNrJBgWDrT3KG7MhCjA96TXEiPy58hgJrgwYNsQsCVweDGnVBduz406Y47t27V8AYrbKVTxlHsMUrGDTXyBWBXnMLyq+7kBOSno0bN94G4dWoUT1QFsaZdyfeiSBiP3aQppYtW9sEWtdee01gUC47cfrh1gdJ1vy4oLt33XW3IdcFXj9SuPsbY8RcZB5x1bt161aZPkN8VosWLe0tBYraBXkQuWn10Ucf2SuF6EtQoOJ99z1gdRdPW506F2d6jlTAZNH+17/uMU2bNs30Gd65QYOGdowuvPBCW1vD35j3FMtj8zF58sSk3hElCHFWuAPgM6kSBIqXDBw40EZtBzUmaPfuPewVw7AG82eXRlrjoIZhZMHlOpF7Rw5BwIiPGjXK7gSZ4OzUwsogs5vh+iU7CQgCu3e5lfDVVyttNTUMLItBz549Aicnk+/55wdZ9o6blQRKEonMJEnc3kjI8uSTj9v0pUGNxE08L4FPd9OnT0ZaVX7H31h4RJagHWxiF/ysGTx4qM3TgCeBojQ0doLIiKwYWHYBGJ2gxo4cGSBGZJnkn+zGuHNOAiCuPbFg87cgo4UsvDf/2L3z7uLVYPeHd4d/LNrkBiBvQbC+fGm9A5CRXr162ch12Y1xO4BsnpCEMJJHn+gLxIj3Rwa8GnhaaMjJgsw48bshQwaH7mDZYeE1IRsnHhbGQsaBCp2MkVxJC/MEoRPoLgG8FKUaNOh5Jy05fxsw4BkrS4UK5W0VwLDrcehur1697buTEpj7+kI8kROvF4sg40PBs6DjFRY63p28JImqiANs3gcaEfB4DcAMHWJn7y7h7h4rZBBPBQsznidZmCHyVD1kh0zxNuqWhEXjkyOF5xGEDDGRSp7oLnqLJ4M6HcgZlvqaWgzoCwseuJCJU96d2wnoC/oN8SVhWlCDqPP8kSNH22uujz76iJMbJJGg7AlrY9BrPIdBiyn9crPillv62kXX73kCF7wYEFt0Cb0O8r5wxfu///2vrV9DrgqSP8k8Ql+o8YEucdOB+U7xtqAmukvGSbwakH+Z08iJ54B5gp1DliDvC/OWMSIG7KyzzrTjEJaeWwnCAbD4x3mFVAgCWboo0Rt155cYAq4phpEEMs098sjDSc9GIQbcE+a+sHgS2JlwPY6MiRih1157JTKHPh4AdhTspiAJTFZh08QddOnSyeYcSHZOiyy4PTHuGP3p06dZsoCB5Xfs6MeNSxSeStZYeEj3inFu2bKlZftc16tfv4F1E99yS2+7K0oW74DRf+qpp+yuL3HldLI1LLggkQfD+vLLUyKvXkGMrr++oQ0KxchC1iAMrVu3tjEQ99xzl2nVqlWkLBwh4CkAD+6D4ybFqHGti6toU6e+FBl7wY7w+utvsGPEgsdRDAskN1nQJRYlN4kJwpgxYoHhyAmjxg6IHRs7QZLkoDuvvDIzsmIjuJCbgzwf/fr1MZ06dbJZOfE0iTcKI5tsjMQ9DUECj5kzp9v4GXBCRnSISoVRsQoszFQfZAFl8e3atavVlyuvvNoGAifSDQcvPIIRC95DDz1s9RMvA7rBuIgskANkiTpLZ+FhB4osECcyjJKAqVWrNnY+cU35xhsbR+oLOQ7AAH1hjCCz7JBffPHFWDtX3osFGe8JrnLmM/OaVMpNmjSzXroHH3zAHkFEzSPmNMQSe0a+E3bot956m5k16xUr3/TpUyMLb6GzeLiQRRZm8lCQ7ZEaG+CU7CiP90FfyK8AkWM8Zs6cYUkytUtIs443cNKkiVZvkjUIErJgX5i/2BiwatDgekOKZVKb4+lIFu8ASaDmxcSJk+3GC30JihFSghBndT0APhOXIOCm5JyMPPyyY4UdS1AerlQUSVyqTNhu3XpYoy+NCYuCiueAicHiwE4IxWTRx1Cx8LFgM9nZoWJQ+KzcQyYW4Pnnn3PIAROCfsJkYeL063ebzXlPAiYY9Q8/rLXufvEcsPDSB5MaWdiVkDdAsheKJ4HjBILzcIGy8LAr5exb0psiC7hIumkJqhK3K6QJDwteA+5Q447GuGBEMHTsWINk4V45soChnKdDoE466WTrepfFiCuoUt0NY86iJrIgA9jKGLEA9ejRy+6YMfrkbcDoU+yKxQgMZIxwpYIBY8R9fWRhPPg7Y4ShxbOCy5zxgixRgZIdoexY/biwgEteBvSFHfpPP62zu+U333zTUM6WBaBHj+62D55FH+4xEn0BF/QFo88ulYUZWTjiYDeEvrjvjyeThbgL9AUsONP98MN5dkGGpAiBY4zoQ1IkgxWySNIuDCi4jBw50pQseZypWrWKeeklCgxVsJ4D2SGjs6K74OkfIzxdN998s+G/yPLmm29Z0oSuiOdAZBFcWFzcuLg9CXgQkAFZ8Bg89dQTjucAWdzBisjCOMsYsfAlvG4/Wn0l2ycEHGLLbl30hT6Y03L9053fAd2FQEIssSUcpxF3gJ6wQxYPR5As6It4ACn/jIcFcoJ36aWXXrKeA9z94jkQffHLgjzoC/MDbw8LM54/YmpI3878ef75gY6nKUoWapX063er9QBi3zi+INsixJZ6EYyre4zAhTFiTjMfRRbI7fjxkOzS1rPBEQd1PpjTQiYZe/RFApD9Y0R22b59+1osWrZsbl577XU7L5hH4lXg+aK7QbIkPAmPmfHjx9u5w7j44yOUIBwAi3+cV4hDENj9vPrqLMfAsuiwwPkTbzARmGhyfo4S1a1bzwmiokQrrmiZMPQRFGnMpGGSshhhUGT3zv8zsajFLgaWhYvERv4AKwgGC5ZEX2PImjVrbuvJ01gQ5fydflmgMDb+hlESUkQmN3bvuENp7Mg4T5UjDiYd7+SXhffgfeRGBe7YevWutEGEYIEhkUUQTMNwwVjTD++GzOzGICw0JvCMGdOcSo24wt1luOW9/LhATq655jo7DshCpjcJRuM9cF2y8PgbCxC4yBghB/LQcIPOmjXT2ZXyDBYXv75ImWO5UYEhvuqqaxxSCS4QOBqyMM6Mt7+BizstLOODax2MIHnoi1ylZYzAxS8LuNCHnBOzCCbiDX60j2NBlnoYLDzIQl/+xrsIQeP57NQluAxdxKMixj5sHrHQ4t6WXT0Bo4yRFHQirS8kSkgThIZFI0gW3knmm5xl8zl2qsQlEDdDY4wINPTH/QTpLrIwVowfngOSpdGk3keQvvh1VzIS8j2OP/DKCXHFsycZGN3v5B8j4kWIP1q/PhF0h+cAEiX6AomAwPkbYwwuMo/wUj733HP2Y4wftk70IEx3+S5jJHOajRAeDIgkjSMHiZFA1xijIN3FhmCnZPMjGUfpg7+5vRhhsqAvzEUIB41EU8QzycbgrrsyikkxvuDil4XnY7fZ6PD/zLf+/W+3eW2Q4/3359qba9KUIGRSqwPzF1EE4a235ljPgQTHMPlR9rAoY7+yEsVL8BERzOw0ZNfJgoH7K6wxUSU9rOwMMex33323c56NUUSWsJsDfuPGM2HpnOexA+LvTF48CyyoYQ3DjiwYhZ07d5kRI0bYCodE38vNhjCiIn3yXRYOcddBEqhlgZHB2EsxJIx0MlmYrExiMW4szAQ5IYvEhWAUwcVdIdD9brw3z5V0t+xO2dWdd9459gxZYgCQJdkYEaQnMRcYFM7WFy1abF2tggu7NxbTMH3hWWStlCyAfBZ9IdiTMaIxvoxRWPS137ihL3hUli9fYTCOctbNgk7/YfqCLIyRLMycd7PDpPQ3u1IWRN4TXMKu0MkiI7orcSroLrgIsQ0jKm59wejLGOHt+c9//ms9ERwrSBrlMDIp/YjRl8I8kKelSz8xt99+m+M5YB7RT7I57SYsLECPPfaYxYUjKXBj4aGPZLrL0YbEOTDv8LCgp+z6pT4IsoBV2I0K5gn6Ih65Tz751J6b1617ub3xQUtG+Pk7+oIsUrSMhRQPGAHC1EaQYGU2DLxTmL4gC2MkukuBOWKECEjEvS8LLX0EkUmRhTGS4kl4BsAF+4DuSsZIcJWyzEF2ym938SQ8/fTTNpi2RYsW1tYlI9nSJ0QaXNAX9KF16zbm448XmgUL5nuuuipBODD5QKa3iiII770310aGE1RFY0KLcURJ+IcyMRnEFclOoGrVqqFnXew+WGBl4kE6cB1i2NnxyRkZxjrZfX0MiRgklJ8gHGThnwSX0R+uw7AYAz/JwIXHezBRZeIjD7KE3QXnPWDlLIY0MMEAYqiYuBJExa4EQxt2BohBYgETI8dCD5YYMNkd8G4QHN4rqEkqWNk9gCny8Q9DLou/2zMS1A/vsnTpUkcWcAIP8BGSw3tUqVIlMGpd+iS9suxWGB/GCRkxWOIu5l0o2RzWeCb6Irtb+mOBQI9YzAVP3LLJ8l7gDRFDLYWngvQFfMPOr/0kgzFCX8DZXYOBRSwsvwO6gSzZ1RcIE4uP6Itbd0U/0HveJ6w+BHrx8ccfO7lExHUt+iK6CzENC3rl+W7d5bu8G89kjITkgGn16tWT5vEgil7qhyALY+7XXXAF37DGs9E70RfRXb++oHNh84i+/borcxrdFfvCuyWr54GtZE6LLOgLes9ccI8JNiqsPgXPxb6IZ4bvgol4VCUoFPuEnQqzL3hm2CT59cWtu+gLsgguBIRyW0kJQoa25dmydVtwlpoDkDSkQhAw7vPnz7eLH/+PEskCzkLNoiTKCUEIuu4EhLBjzndpKCdBQhgiGCssXiYfbDasdCnfRRYmC99jsmHEeD5uPowLys6CiMKH5X7n/J0ALBoGhDNQns8CgptTJgou/LDgTN6BxRRZwIbvS/ITduAYBeTg9xjIsMWHXaLEbCA/z+N7vB94CQFjFxoW5c0YkCteDBLPlCMfjDhGBoMCNlztDCNO7NjFXcpYc4wiHhcwE6OEuzysfDR44N1AFnABSyFZLG7IKljUqFEjaa4KcvrTwIKx4PmMEbokpCeZLMjw4YcfWr3lexAJcSNzjEC/6A59saCG1axAV3h/GvITcY7u8q4cBYjRTzZG6AtxMEJSRHfpE1noSwgUBCzsVgD6SVAlDX1Bd0UW5pG8A7tzib/wmzAWY2QREsk8kSuTjJEUfQIX9CWsQVTEwwPGjBG6xf+DlxCNKN2FrNDQF0ixjBHziHcUQkeq97DEWG7Pl1sW8EaP5HsEs4blE+H56Au48D3kEPLJGImHg74gGmE1W9xzGn1hLBhPv74wdmG3sfgsxAkd5f+Rg3mETmMvkAWsGTtiFsL0BXIgCeHc+oI+oi9iI7G5ciSnBCGzxitB+AcTrgy5PQgoEgafhlJikGUxx5CwAMmCk4wRi6Ki4Ex491UaJpQY/ChGTBEZJjALu1w9FNLBgipVEGH4YTsFt5HFELhLIfO3OGSFiQ9BYAJjcDE67muKeDp4frJFGSxYlMWl75eFhZDPsIi5Xft+9XXv/BkjMBTvQ6LC5RrHQGJkwxICsWORc22e6w5SYlGSM/xkngh0gp0/jXFCbjGk/I3duBDKZLs58VrRh5AveW+/vuChCWrI+8EHHziLqZt4IguGE9kwrsn0xU2cwNO9wKDXsignIyvoC7ggE94Q3NSCg7jq0RcWHwhl2DVTFkJZlP36gv7L9yAHYSW+eT5jzXOZ33xWFgrkox/REe7Ph5FbSIbscP36wiIm3kLIqnuuuscKWdi10+gDoiJ4Mq8kToa/V6tWLZT0MxeZBzyT77tzikDi3NUMw2RhAV2wYIGVBWwZZxkj5gWyMp/BGFsX5qERLyey8Hm3rYNUyfeSjRGyQPrFMyMxUWLrIK1sxrCbEMqwpE1+j6sEhNKPex65SZwSBCUITu1vf7IVP0HAYMybN88aNowJhkR2JjBzYbJRE5jPSuZCJj1uMZSaiYgBFleb+8wyyOiLBwGCgCyyiGHUxL0f5UFwezPYGTDZxQUIa5cJHbUjFA8CDB9DIgaF3RPyYQhS8SCAC8YLWcAFl7SMD56FsKxrbg+CeBHks7yfuMQxbBCEOB4EvkOsAZ/FSGHYhHQkM2zIzRghh7hUZWfCosHfZRFL5kFgPIUgYZghAchCnyzKdEH56gAAFcpJREFUoi/JZEF/2BEKieNoQoIFMY4sGql6EMCTHRs6hhFnjOT9ko2R24PAeDHG4hFCFuYXCxu/j+tBwIMHLugYuLDoSyKnuB4Ev76AOfIxt1LxIEAU0Bc590ZfZIyS4eJelHkHdEwWd2SR20WQlGQeBCFxvA+yYF/4Dn1C+kV32bG7F0m3jXHbOuYvxxoii3sxRW8YozCijZ0T7xckFH3hO+AKLjKn43oQeB88COiubCrkyCPKg8DVYQm6RRY8ZaK7kHDRF/UghDrK7B/UgxDiQeDXwkIxcig4kwYFReEwUPw/ux8mgjBuKjUWLFjAWQzcOyiMPz9jWDFyMGEWZb5Lf+JiZGFigrtdv+LWRBaMM5OG57P4yJk2xoAdoSyEfJZJITshFhy+S/+42TBSvBM7Mz7HxEUWWLucKXObgVrwshvmuxJJzv+zm2Kx4v/ZbfNdPuv3iCALhkVwghRIamMxzhzh4FXg+8jiP1PGkLHQCi4YDXaniXoWf9sdGbhgXDky4ByZz7qj7RlXxgBZBCcMEaSHPjBw/IwBwcBg7GWM3DEIyMIYuY9z5NwfXDHcYAv2vBOyYCzpD2ImDYPM+4os7pgVDC64IQt98F2IJBgyzrIQBekLZ8F4uXhXcGaM0BfGCH2lQRyQRcbEry/umBUMLu+MkUcWIR18lzNycUkn3NQ7DWmlae6odsYOWRgj0ReeDy6MkdxCkN2iW1/cMQjoCxijY4wz8wjS4d/hQuL559ZdiLDErKA7LJy8N+/EHOSzfq+VEBuZR+6zdkgxsiC/W18YT3b+spjKcY9bX8QTIfrC2PI5Iczgwju6PUUSe+HXXfBEX8AYvcNGIRP/zxgx5uJZTMyjnbairDTRXfrH7oEL3wMXdI2GTXB7gJCb9xNc3PqCx4fvIwNjxHflKNKvu8xXwcmtL0Is0F1+D77YOp7nvhEh+uI++kBuSVcOURL5wQXdZU779UU9COpBSOpBID3q8OFDDTs8GrtJJg4LAYZAaogz6dgdSGSvTDyM6N1332suuuhCJ90xExcFRTEx/iwcTGIWZHbNGAwMkvvKDdeQqOH+738/ZMjmSMONyE6JiYIs9CcueDGOTF6JSoeMcNWL+AhS+/pvVCADiwjvxnuw8+C/TGjZQbNgEiGP+/Hee+91blSwgIILxgxjLUyd95DzWBYNWcAwECRCQT7uKDMxwQW8JIaCySyy8HxwcUelgwG3GLh3fd999zo3CsAUXHgfSI+cO/JdcAFnNy64KO+5515br75Lly52ceI9kYXvYiDlWityMkZ4RNweHt4bXEjt+8AD9zkubbe+gL8ElWIYwQUD5o5K5znoCyl75RaD+/iF/vAaYEBFX1gMkYWdMmPKexMJjlEnIZfsjMRYoy8sHHKtle9i/AUX0V3wf/DBh0ydOnVszgFZ3OXWi1t3eQ/xhPE8iUrnWSSx4jbPQw896GTCg5hCDPg7+MvRksgCzuAiu130+557/mVTnDNGLAjoi9x6YeFALtEXxggi6I5KR35k4abJ/fff59FduZnEGPllkZsmggs76H/9635z4YUXmPbt2ztXXeWIDH1BLnQCXYLkoLvuYxe5xYAsDz30gBPfI7deeA+3vvBdFjBwZjEVUsGco7z8tdde67nFIMcv9CdXbJnLQpBZYIX8JzIrPmV14pFHHnEyJ3IEJmPE36QQFd8VWRgjkYXsiXyfq5ckH6O5b724dZexQV/Ah3cT3ZUcBN999615+OF/OzFePFuu5yIL8whdRxb+0Q+4yJEFN3i4JUUuEG538Fkwpw/JASI3V5AFXBhnZMH7KfpFkjlsnQYpZhAF9SD8g8WYMWPMI488ahelcePGmFKlYNDGKhiLB5NYdqpyZoqii9sMA9ymzU3WcNFYCOVKH8rKxJXKbRhbDD2TGGYNOZCgOJLdcJ+c77DAUodAUgxj9JEF5o4sTAT6wZAQPCceCBbK9u072gWTRiKgm2/u6SyGyIi8LC70w6SXXT+yyDUxcjKw+NCYTCNHDvdc0eKdMDh+WehDdpRM8BtvbGrPMZGXzIHkuacyJu/I+yAL/YAL2DJ5eRe54oicJJuhQBSNa4UjRpCl7zj7M9+HhPE5jCS7KznmcOOCd6BVq9Y2VwV4kxuCNNgSNAouyMlYswjJWSekS3IP8IyxY8f+M0Z7rIEZM2aUIwvGjEWFz/E+LGzyTsgigYssTGTmAx9w4fobhpZ3F0MrssixjeDCgoz8XEMlURNXvMASPCZMeMG56oi+gYuMEeMqY00f4iVicerQgSyKiYBEkhV169bF0UnRXRkjwVbIpJAJSfPMzxhycJHjBLcsvA/vjCwYbMZZyCTGvnnzFs6tB64osjCLTjJGMo8YI2QBF2QBX8Ye7LniS/pyGmM3dOgQJzsf3ggZI8gu4+/GBd2FqIELmSbJzMdnyM5HBsUE9jvtXA8aI74vV4XRJYitFM5CFuaRBDyjB7LzZx7xnmIb3GOEpxDdJfkY7/jgg/ebhg0bOrrLYsiizPPc+oK+gYsEunL1kyyk6CWbnLFjyQKamEeiu/RBX8giY+2e06QF79ixk3OcQDI4dFdsGIQFu+mWRQKI5eonOk4uEeY1DdI6duxo55iTMQIX+pAxQlcYJzYQQibZ5HA9cePGRP4SijjJFVDmBMQAu0k/2E2Z09h5cEEPqb3x0EMPmYkTJ1ldJBuo+zgSfYI40F+lSpVNwUIJ79jB0JQg/DPKKCx5ublnjKElG53cb0e5MATujIEsGuLSYkJ0797TThiSAL377ruGPP8QBHKo05iQTDqUHYXD4KDk/JN7uOx4IAgYDzIGksIXAztixDBn4mCkWQSRBSOGwrtl4Z4/ef6ZxCx+FAhih88dbqrUCVtGFsnqiIFFDoyBnL2zGPN8FmqYOYVlWAypNSC4IAvvIwSByeuWBaOGIUGmNm1am7fffscaIYwJaVklGx19II/gQh8squK6JMUzO3aef+mldWzqZQwKOfXlSmrUGLFz7dKlm/V4QFBef/11uwCwWyYpkMgiuKAPGDy3LBgIEs0MGTLEUHzrsssus8YWWchGJ8Fx4IK+yDU6cGEBFDcqRg19wXtCkpmZM2faGhokSpJkSaIv7sx4jJHgwvuSAY7CNjyfIjuMF1n6KOwlhcHc+oIe+scIWW6++RZLDsiEN2fOHLurJkcExYpk8RfdFW+GWxawevjh/5iJEyfa59asWcv+P5np8IadfPJJth/BRW4Aie4KLiwIjBHjQgKrWbNmWT3n/0m/jG4yBslkYU6QmIgqn2BB4CN1CCDZ1OyQWyhRskCsqAHB3GEez5w5y/l/5rh4wdBd/okHQeY0C4/IQvZCzsApKMYCTRVO8q1ITIBfFr++kP+AKokQIxJHkaqZ7IGkx0aXxb74ZUF3mdPMI55Bzg0WQchLtWpVbd0D/h+vqRAWdBbd5fM0/xgRQCiZFMm2ie7+8suvdnwgcqIvMqdFX9yyMM/xykybNs3q7nnnnWsztZLbhHoQ4gVDFvTfnUmRftzziIqwzGnyZZCNkb5J2oRs4klw6wvfFVsnthCvzOTJUywWjIu/BoQShIOBChljkl1zFMUmiQhJcGDeo0eP9ET0BsGEAWG3jkHp1q2bLUyEgWvXroMlDBS6waCEXQ2iT4wLRoRFGWM6evRoW3WNnyEMLODk/g+LQha5qKiGS5YdMkaNZE2cOVOtEIOCG5sdfNiVKcGABZmFL7HDGG1d2uDCIo0hYTcWVg5aZGHXyQ4Z8kBKVgwbhqdFi1ZOQSKwCbumRD8sghhUPBnsSEeOHGFdxeLZQD7IU9i1NvrASIMLi8yvv/5m2re/ydxyCwviGosV/2WRhsCEBV/J4sYYkUwIl+vQoYMteWOM2KnyO3aGYQGVgkvCmHWwCzJpcyEEYMXvpBAOO6BksmCwKGJFITFICc9FX/GAQRggI+PHjw291iayoLMsyOgwegFZgki1a9fe7lTRW/5F6QsFf0ghzO4L7xueCYryjB491hIG/hZWmlpk4VgCPWUxkDnDLpKMoMiS8DxlFHEKmovoC0mwIAfU7KB6IePCGLGLR74hQwY5CXmC+pAjHryB6C5zhjECl06dulisKMFMye5kuPAezCFsCXrCIoyesgGByEFYwCWsIJHoLrYkUT3yZzufwYCjgE6dOttKsnfffadp1qxZaDS/6C5zBgyEEODluP/+B2waahZk5nnY1UPBCY+JlFC+887bbf0SdugdO3a2ZBePHAt1sjmNrWOMsGsc/aGnECJkmTRpsh0b9DnsarPIAmnq0KGjJTLoBs/F7uHxYWOCfJL6OWx547sPPPCgJQfYM1KFB1UBVYKgBMFBAAUmRzgTmYmDQQmr/CY16hPFbhKLjBCBRDEeMf432ckT1MQdyg6dxRdDIs9jF8mkxsCx8LAYhk0cvBjkjqcIEUYdBi2LDHn+2ckziUkVixsu6AoXz3v44YfNhAkT7RHBqFEjHFnYCWDs8HJgSJ577tnQZDKUUqXwD6SEoxYMrATCIUv79h1sYCRFZnCthxlaxgBDAhGgsqS8Oy5BFgEy3OEqRBYJpPJjnJClsyVrYkjEgGF82cmzc8XAMIZh1+yQBXco7k1kkRsfjB8y4l7nd+yAwhZDshUyRhABMg1i2AsVKmhFhjCwY0WWrl0pNZxRAdP9TiyC//73IzZ1MHhQQVHKT7O7ZiHgH94WCG5QmWb6I6CT/P4QSHST3PVyZYxjHzDDtc7vIXdBDZ2QneAxx0CoRzm7YnCRao7IgkcuDBcWHt4d8kSWzM6dOzr6yRyDOGzZstV6xPA8hY0Riww7ZJ6D50IKirFYM48gufwOzMJyjvDuLILMFd4bciuZPPmbECrxPIUthpTc5tjy3HPPsV43GQcWJfSIIwfR67DbBYwR9UPwHHC80ajRDc5cgbB07tzFzncp4hQ0RolF8CEzZQo75LPsDlmIAOOHHMxrFkjGLyxBGvE2ffr0tcd5xCM1adLY0Reqf3bt2s0eK0DugsrNC+G/8867zCuvvGrnCseEMkboC0erkCdkwUsXVJKefggoRncha9gyGSP+BnkiloC5wJyWlOF+bPj7nXfebaZPn+7ULwkrKKYEQQmCBwFIwjPPDLQMn90YKV+DGoE6GFhcWiwu/sbOlUnMZL7ggvMDq8ixq16w4GNLAIYPH+acH0tfLNri7ic/eO3aF9rYCHeT2wTkaxfPgV8WSAwLM7tGoqsx6P7GDpuzNllcJPWp+3NiUHBd4qb0Ew12YBxrMKkgTODi/wzGl10qZIE+grLwUXmRa6Z4VDAWQYuLFE6CJGCIg9rChYus54KFjuMev0FPeH66W08CwaVBSYNYlDkewbBCDvyLC4ZWSg0Tk0KJ36C2ZMlSS4wgcG7SJJ+F5GFo2QkRLFi0aJFM3YALY4SrHC+G36ihu7jYX3xxot2ZkSLY39AXUuWCC7tSCZB0fw6dJS6BOJaaNWsEjhHvAr6QJuIN/IsLukDKZGI2cOsy1kIUM/Qbffmf9aLhLpeAWrcsLARt2rS1JKpatermyCOPyPROuLlJPMSxAh6uoNK9jz+OJ2GIPXOvWLFSpnlEp+gu4w0mjJP/aixkBn1hPtWuXTtwjPA8zJ37viVuyOJPOoa+CC4sgu67/u4XA1sWXY56wMY/j9hFU8ocIkfK46CcAOgL+VzwHKC7fn1hnhKciov/6KOPcm64+O0LAZa4+/v3v9V64/wNIgfJY2NUu/YFgRVWmffoHcGOeJr8+RTQS3b0eBI4SsDu+vWFhZ0x4rMQfok3cMuDnkAqqUWD7gZlbSQgmTTcCY/KsEDPgfSpBCHQnB14v4w6YnC/MQZr3Dg8CY+G5m1nwrLosPiEHSGwc+3SpavNlR/WcD3iHTjtNCLTM3+KyYB7n0UoWWPRgcEnu6d8003tnYx0QX3hxWDyhmUMZLKwG8OTkKzhPg8ysPKdhNv/JucGRFBfEJXBg9khnxr4KAw5ngR2HpKcxv9BCAFjlMz1KccNxEqENYLLkrmn3Z4EyTwXJAseE7w4YQleMG7sYOVqVpA8HCuw8ISV3BZPAjtmue/v7wfDi+cAEhcmCzqLG1duhgTJws4YfQkfIzwJxG0kCm2FNYgki3KyXBW4/YOKjEmfkIMhQwaHusrZTbNbxsMShgv6cscd/W3MTpCXLXFktcoeN0hQZ9A7VapU0coSlj4d3WUDwkaE8QpqjIvfc+D/XOLosLOTITWoH8728eCE7ZDRV+Yz2IThwrhwe6hx48ahHj88CWyIkulLIhiRIPDE7Sx/Yx7JMUwyffF7DvyfxVvHGG7evCW0G4gtczrZESVfVoKQdOoeOH9MhSDw1kwWPAS4tIMaOzy525sMJXYU69YFF2uCELBTD0t3K/3KHX3uLwc1vp/sPFO+g7uVHdnfAQm248pCX+CyfXsikMnfMGxSNCgZLhhsdmJhRonz67Csbe5+eR/yTwQ1XPgYxrCsePIdguEov5wdWSApyBKmL8WKJa60/n97d7OTMBCFYbhBxI0saSRxgRvRjRu9/2tQ70AwgolENkgwLMzXWlKhnXYam7Sct1umMOeZKRza+dn/V7Rfbw2qSnbt23+t04k333GNaUn6rm4/5/34qC7JLBBXG8lFW/tmHYpDX/R5CUb6HCXKm8135vsolrzbyekTXH1X5dT/i66jor6r/qIfjKI20kwB/SPOuo70GcPhhXPfDpX5r/6iAYG6i5B1lO0vqose8Wy32clKv3/+Z5XGvD7jqotM9b3gGruRvK+SL83SyTrK9t3VStd0Xt9Vf7ncrdfhugZIEFw6R/Sab4JwRKETCgIIIIBABQEShApobTwlSRD03Cm9ZnkbY6HOCCCAAAL1C5Ag1G/ciE94fnqMBiC51gJvREWpBAIIIIBAIwTSG0jdPxwOzG5EJWuqhKmFkqaTl+i5YdFGHzVZ87YIIIAAAi0T0G+G1irp9c6Cu999KVoWQuXqmkoQNL1IdxGSZUaLFrWprMqJCCCAAAKtF9AdZ23qpccMgzAMRqOr1sfkE4CpBEEwr9NpMJu97XYa0zSkMqOwfVApiwACCCDQXgH9idSMDM2+0TRQ3T24Ho9LzZJpb9SHNTeXIMTTBSfB+3weaRRNZzqmxiYWBBBAAIFyAsmUZ03DvbmNt2u3dphLEJIGXi4/g8XHIlivv6KFkPLmv1vrEMSLAAIIWBc46XajBee0OVo4CIPTXrwkurXDbIJgraGJFwEEEEAAAR8BEgQfLcoigAACCCBgRIAEwUhDEyYCCCCAAAI+AiQIPlqURQABBBBAwIgACYKRhiZMBBBAAAEEfARIEHy0KIsAAggggIARARIEIw1NmAgggAACCPgIkCD4aFEWAQQQQAABIwIkCEYamjARQAABBBDwESBB8NGiLAIIIIAAAkYESBCMNDRhIoAAAggg4CNAguCjRVkEEEAAAQSMCPwAfGcdJljJE+MAAAAASUVORK5CYII=;points=[[0.14,0.93,0,0,0],[0.18,0.93,0,0,0],[0.21,0.93,0,0,0],[0.25,0.93,0,0,0],[0.28,0.93,0,0,0],[0.31,0.93,0,0,0],[0.35,0.93,0,0,0],[0.38,0.93,0,0,0],[0.41,0.93,0,0,0],[0.45,0.93,0,0,0],[0.48,0.93,0,0,0],[0.51,0.93,0,0,0],[0.55,0.93,0,0,0],[0.58,0.93,0,0,0],[0.61,0.93,0,0,0],[0.65,0.93,0,0,0],[0.68,0.93,0,0,0],[0.72,0.93,0,0,0],[0.75,0.93,0,0,0],[0.78,0.93,0,0,0],[0.82,0.93,0,0,0],[0.85,0.93,0,0,0]];" vertex="1" parent="1">
                    <mxGeometry x="153" y="40" width="520" height="475" as="geometry"/>
                </mxCell>
            </root>
        </mxGraphModel>
    </diagram>
</mxfile>